<svg xmlns="http://www.w3.org/2000/svg" width="34" height="36" viewBox="0 0 34 36" fill="none">
	<path d="M33.5099 11.769C33.01 11.394 32.0103 10.894 30.0108 10.394C29.3859 10.269 28.7611 10.144 28.0113 10.019C27.0116 9.89404 26.0118 9.76904 24.6372 9.64404H24.5122C24.2623 9.01904 24.0123 8.39404 23.7624 7.76904C23.6374 7.39404 23.5125 7.01904 23.2625 6.64404V6.51904C22.7627 5.14404 22.1378 3.76904 21.1381 2.51904C19.8884 1.01904 18.3888 0.269043 16.8892 0.269043C15.3896 0.269043 13.89 1.01904 12.7652 2.39404C11.6405 3.64404 11.1407 5.14404 10.5158 6.51904V6.64404C10.3909 7.01904 10.1409 7.39404 10.016 7.76904C9.76603 8.39404 9.51609 9.01904 9.26616 9.64404H9.14119C7.89151 9.76904 6.7668 9.89404 5.76706 10.019C5.01726 10.144 4.26745 10.269 3.76758 10.394C1.7681 10.894 0.76836 11.394 0.26849 11.769C0.143522 11.894 0.0185547 12.144 0.0185547 12.394L0.143522 13.644C0.393458 15.519 0.643393 17.644 1.14326 19.894C1.51817 21.644 1.89307 23.394 2.51791 25.019C2.76784 25.644 3.01778 26.269 3.26771 26.894C5.26719 30.894 8.89125 33.894 13.3901 34.894C14.5148 35.144 15.6395 35.269 16.8892 35.269C18.0139 35.269 19.2636 35.144 20.3883 34.894C24.8871 33.894 28.6361 30.769 30.6356 26.644C30.8856 26.144 31.1355 25.644 31.2605 25.144C32.6351 21.394 33.135 17.394 33.6348 14.144L33.7598 12.394C33.7598 12.144 33.6348 11.894 33.5099 11.769ZM16.8892 9.26904C15.2646 9.26904 13.89 9.26904 12.6403 9.39404C12.7653 9.26904 12.7653 9.01904 12.8902 8.89404C13.0152 8.51904 13.2651 8.14404 13.3901 7.76904C13.765 6.89404 14.1399 6.01904 14.5148 5.26904C14.7647 4.89404 14.8897 4.64404 15.1396 4.26904C15.5145 3.89404 16.1394 3.26904 17.0141 3.26904C17.8889 3.26904 18.5138 3.89404 18.8887 4.26904C19.1386 4.51904 19.3885 4.89404 19.5135 5.26904C19.8884 6.01904 20.2633 6.89404 20.6382 7.76904C20.7632 8.14404 20.8881 8.51904 21.1381 8.89404C21.263 9.01904 21.263 9.26904 21.388 9.39404C19.8884 9.39404 18.5138 9.26904 16.8892 9.26904Z" fill="#1F1F1F" />
</svg>