<svg xmlns="http://www.w3.org/2000/svg" width="33" height="33" viewBox="0 0 33 33" fill="none">
	<path d="M6.05719 27.1653C5.20408 26.6618 4.06733 25.7251 4.10031 24.1508C4.12889 22.814 6.01981 20.6878 10.868 19.8743C15.7162 19.0608 18.3921 19.4477 20.5644 19.6808C22.7368 19.9139 24.0934 20.6109 24.0934 20.6109L22.1145 24.606L6.05719 27.1653Z" fill="#04C1EA" />
	<path d="M14.6575 23.514L10.2007 24.6969L6.62996 26.2734C6.62996 26.2734 6.18581 27.2101 6.40788 27.4564C6.62996 27.7026 9.90607 29.5759 15.7151 29.5979C22.1442 29.6221 25.5633 27.9489 26.7462 27.087C27.9291 26.2251 24.4067 21.2757 24.4067 21.2757L21.467 20.0664L18.1271 20.3896L16.1571 21.3747L14.6575 23.514Z" fill="#F5C876" />
	<path d="M17.5569 23.1112L22.537 22.8474C22.537 22.8474 21.8862 21.5985 21.6465 21.0378C21.3739 20.4002 21.3233 20.033 21.3233 20.033C21.3233 20.033 21.9082 19.8703 22.9064 20.1231C23.9046 20.376 27.4534 21.5149 28.3219 23.7093C29.0783 25.6222 26.73 27.1019 26.73 27.1019C26.73 27.1019 25.1469 26.0223 24.5555 25.4573C23.6298 24.5734 23.1285 23.8324 23.1285 23.8324L17.5041 24.0303L17.1699 23.8082L17.5569 23.1112Z" fill="#F2A159" />
	<path d="M6.85313 23.908C6.22429 24.5368 6.95208 25.3108 6.95208 25.3108C6.95208 25.3108 5.5251 25.6318 5.57347 26.4673C5.59765 26.8851 6.16493 27.3776 6.41119 27.4524C6.65744 27.5271 6.60907 27.0478 6.95208 26.7136C7.83817 25.8517 10.5712 25.6538 12.4665 25.4581C14.3618 25.2624 15.1402 24.6072 15.4942 24.3741C16.4308 23.7585 16.0856 22.0149 17.1058 21.2387C18.7461 19.9899 22.4971 20.1614 22.4707 20.0228C22.4444 19.8843 19.3617 19.1917 16.5364 20.3351C14.6476 21.1002 14.6828 22.6987 13.3548 23.1428C12.0268 23.587 7.86235 22.8988 6.85313 23.908Z" fill="#DCECF6" />
	<path d="M9.50503 24.5014C9.10706 24.6465 9.48304 25.0665 9.66773 25.172C10.0371 25.3831 10.5362 25.6052 10.5362 25.6052C10.5362 25.6052 9.48744 26.4011 9.77767 26.8167C9.99095 27.1223 11.9654 26.3637 11.9654 26.3637C11.9852 26.3637 13.1835 27.3422 13.6936 27.3444C14.074 27.3466 13.8167 25.9262 13.8167 25.9262C13.8167 25.9262 15.4196 25.5854 15.4196 25.0973C15.4196 24.7169 14.6237 24.8268 14.6237 24.8268C14.6237 24.8268 9.903 24.3563 9.50503 24.5014Z" fill="#EE594A" />
	<path d="M12.9023 23.5246C12.4868 23.4872 11.7216 24.347 11.7216 24.347C11.7216 24.347 9.4679 24.193 9.43052 24.5734C9.39314 24.9538 10.6244 25.1165 10.6244 25.332C10.6244 25.5475 9.63061 26.3434 9.72075 26.5963C9.8109 26.8491 11.7788 25.7102 11.9261 25.7651C12.0734 25.8201 13.5641 27.2603 13.8302 27.014C14.0589 26.8029 13.8236 25.565 13.8236 25.565C13.8236 25.565 15.3429 25.2045 15.3231 24.9318C15.3055 24.6614 13.408 24.4613 13.408 24.4613C13.408 24.4613 13.3003 23.5598 12.9023 23.5246Z" fill="#F79228" />
	<path d="M15.7099 6.15874L14.6699 6.08398L15.7297 13.8367C15.7297 13.8367 16.7917 22.5723 16.8643 23.0956C16.9566 23.764 17.1215 24.1202 17.7108 24.0301C18.3 23.9399 18.2407 23.3617 18.2033 22.9109C18.1659 22.4602 17.2227 14.2633 17.2227 14.2633L15.7099 6.15874Z" fill="#4EA4B0" />
	<path d="M14.8586 4.84204C14.8586 4.84204 9.83888 5.39173 6.60673 8.98006C3.99903 11.8758 3.57468 14.4769 3.75937 14.5055C4.06939 14.5539 4.85874 14.29 5.72064 14.6484C6.58255 15.0068 7.08386 15.7478 7.37189 15.7478C7.65993 15.7478 8.71092 15.031 10.1951 15.2465C11.677 15.4619 12.6818 16.3458 12.9941 16.3458C13.3063 16.3458 14.5486 15.4136 16.4615 15.3168C18.2073 15.2289 19.3792 15.651 19.6188 15.6268C19.8585 15.6027 20.3246 14.1229 22.1672 13.5732C24.0097 13.0235 24.6188 13.4743 24.8826 13.4743C25.1465 13.4743 25.2894 12.1836 26.6042 11.6801C27.9191 11.1788 28.4226 11.3921 28.7084 11.3459C28.9943 11.2997 27.6552 8.09617 22.9082 5.92602C18.9834 4.13405 14.8586 4.84204 14.8586 4.84204Z" fill="#EE5948" />
	<path d="M15.0902 5.2041C15.0902 5.2041 11.8229 6.18254 9.54942 9.74669C7.68929 12.6622 7.6607 14.817 7.77943 14.9357C7.89817 15.0544 8.99973 14.5048 10.3388 14.6257C11.6778 14.7444 12.8079 15.7404 12.8739 15.5118C12.9575 15.2215 12.9311 12.649 13.2345 10.4833C13.7996 6.431 15.1188 5.5493 15.1188 5.5493C15.1188 5.5493 16.8778 6.72783 18.2124 10.0545C19.0502 12.1411 19.4657 14.2849 19.6394 14.5575C19.7164 14.6785 20.4397 13.5703 21.9437 13.0822C23.3355 12.6292 24.5514 12.9788 24.7185 12.8843C24.8856 12.7875 23.3245 9.40149 20.719 7.45341C17.7771 5.24808 15.0902 5.2041 15.0902 5.2041Z" fill="#FEFEFE" />
	<path d="M14.7934 3.0988C14.1514 3.18675 14.3559 4.12561 14.4043 4.67749C14.4262 4.92155 14.479 5.85821 15.1232 5.80764C15.6597 5.76587 15.585 5.05128 15.5366 4.52578C15.4904 3.99808 15.4684 3.00645 14.7934 3.0988Z" fill="#4EA4B0" />
</svg>