<svg xmlns="http://www.w3.org/2000/svg" width="14" height="16" viewBox="0 0 14 16" fill="none">
	<path d="M9.14142 4.17042L6.84863 4.19292L8.80888 3.12423L8.34507 1.46932L9.64648 2.45676L10.9554 1.45557L10.6116 2.803L12.7694 3.05048L10.5241 3.92544L9.62898 5.48786L9.14142 4.17042Z" fill="#FFE36C" />
	<path d="M10.5346 2.09306L10.4396 2.4631L10.2983 3.01942L10.8684 3.08443L11.736 3.18319L10.5158 3.6595L10.3508 3.72326L10.2633 3.87703L9.67821 4.89841L9.43818 4.24833L9.31567 3.91704L8.96313 3.92204L7.84924 3.93329L8.75435 3.43948L9.10439 3.2482L8.99688 2.8644L8.7881 2.11931L9.34317 2.54061L9.64696 2.77064L9.9495 2.53936L10.5346 2.09306ZM9.64571 2.14181L8.06176 0.940413C8.01051 0.901658 7.93925 0.950414 7.95675 1.01167L8.51432 3.00067L6.08402 4.32584C6.02276 4.35959 6.04651 4.4521 6.11652 4.45085L8.96813 4.4221L9.5307 5.94354C9.5507 5.9973 9.62321 6.0023 9.65196 5.95354L10.6983 4.12581L13.5512 3.01317C13.6162 2.98817 13.6037 2.89191 13.5349 2.88441L10.9259 2.58687L11.3284 1.00542C11.3447 0.944163 11.2734 0.896657 11.2234 0.935412L9.64571 2.14181Z" fill="#FF8F00" />
	<path d="M10.8248 5.95888C10.666 5.93638 9.87469 6.72523 9.30337 6.23017L9.30212 6.23142C8.97333 5.96514 8.61079 5.73261 8.21199 5.54258C5.4929 4.24617 2.23624 5.39881 0.938578 8.11916C-0.357834 10.8382 0.79481 14.0949 3.51515 15.3926C6.23424 16.689 9.4909 15.5363 10.7886 12.816C11.2099 11.9334 11.3724 10.9945 11.3061 10.0844C11.3011 10.0206 11.2899 9.87938 11.3211 9.77436C11.5349 9.05677 12.3125 8.69923 12.2962 8.66547C12.28 8.63047 10.9848 5.98139 10.8248 5.95888Z" fill="#4D4D4D" />
	<path d="M12.3273 8.64737C12.6761 8.44662 12.6147 7.68585 12.1901 6.94813C11.7656 6.21042 11.1386 5.77512 10.7898 5.97587C10.441 6.17662 10.5024 6.93739 10.9269 7.67511C11.3515 8.41282 11.9785 8.84812 12.3273 8.64737Z" fill="#757575" />
	<path d="M12.015 7.69071C12.1519 7.61167 12.1644 7.377 12.0429 7.16656C11.9214 6.95613 11.7119 6.84961 11.575 6.92866C11.4381 7.0077 11.4256 7.24237 11.5471 7.45281C11.6686 7.66324 11.8781 7.76976 12.015 7.69071Z" fill="#212121" />
	<path opacity="0.9" d="M5.73692 6.99373C6.0794 7.96618 5.57818 8.54615 4.92946 8.91738C4.61948 9.09487 4.2595 9.17236 3.94577 9.34361C3.3358 9.67609 2.96582 10.3173 2.4346 10.7635C2.3021 10.8748 2.15086 10.9773 1.97837 10.996C1.74838 11.021 1.52339 10.886 1.3859 10.6998C1.24966 10.5123 0.690939 8.73489 2.73083 6.91623C3.64203 6.10377 5.36194 5.92753 5.73692 6.99373Z" fill="#757575" />
	<path d="M11.7671 6.37749C11.7608 6.37124 11.7546 6.36374 11.7483 6.35749C11.7471 6.35624 11.7471 6.35499 11.7458 6.35499C11.7171 6.32624 11.6883 6.29874 11.6596 6.27125C11.6558 6.2675 11.6508 6.26375 11.6471 6.25875C11.3309 5.97251 11.0071 5.85127 10.7896 5.97501C10.4409 6.175 10.5022 6.93621 10.9271 7.67367C11.0184 7.83116 11.1184 7.97491 11.2234 8.1024C11.2109 8.06615 10.7434 6.66248 11.0346 6.28624C11.2834 5.96876 11.7233 6.33999 11.7671 6.37749Z" fill="url(#paint0_linear_3025_3790)" />
	<path d="M10.0213 9.7388C9.71877 9.54006 9.42254 9.27008 9.2388 8.59136C9.21505 8.50512 9.13505 8.07639 9.36629 8.00764C9.56628 7.94765 9.71502 8.27638 9.88751 8.56511C10.075 8.88135 10.3787 9.15508 10.705 9.33382C10.8 9.38507 11.2412 9.58381 10.9512 9.8613C10.76 10.0425 10.1987 9.8563 10.0213 9.7388Z" fill="#212121" />
	<path d="M4.23242 5.26214C4.69365 5.27713 5.6361 5.28338 6.82853 5.75211C7.22976 5.9096 7.5685 6.12959 7.93223 6.35458C8.22596 6.53582 8.55969 6.68706 8.90343 6.65456C9.02467 6.64331 9.15841 6.59582 9.20591 6.48332C9.23466 6.41332 9.23216 6.34208 9.20716 6.27208C9.17716 6.18959 9.07467 6.07459 8.91717 5.94585C8.69594 5.79711 8.46095 5.66086 8.21221 5.54212C6.91728 4.92465 5.5011 4.86341 4.23242 5.26214Z" fill="url(#paint1_linear_3025_3790)" />
	<path d="M11.6069 7.10169C11.6194 7.09669 12.8881 6.52047 12.7781 5.68427C12.7056 5.13179 12.4906 4.85681 11.3532 4.58682C10.2408 4.32309 9.69703 3.80686 9.67453 3.78436C9.56329 3.67687 9.55954 3.49813 9.66828 3.38564C9.77577 3.27439 9.95327 3.27064 10.0658 3.37814C10.0745 3.38564 10.537 3.81311 11.4844 4.0381C12.5869 4.29934 13.2081 4.62807 13.3381 5.60927C13.4831 6.70671 12.2731 7.39043 11.9269 7.57167C11.7119 7.68541 11.4644 7.16419 11.6069 7.10169Z" fill="#C69461" />
	<path d="M10.0633 3.3796C9.95208 3.27211 9.77334 3.27586 9.66585 3.3871C9.55835 3.49959 9.56085 3.67709 9.6721 3.78583C9.68835 3.80208 9.98458 4.08206 10.5783 4.33455L10.697 4.12706L11.1545 3.94832C10.4283 3.71583 10.0708 3.38585 10.0633 3.3796Z" fill="#F6BC41" />
	<defs>
		<linearGradient id="paint0_linear_3025_3790" x1="11.7544" y1="7.58519" x2="10.3933" y2="5.78943" gradientUnits="userSpaceOnUse">
			<stop offset="0.1096" stop-color="#FFF9C4" stop-opacity="0" />
			<stop offset="1" stop-color="#FFFF8D" />
		</linearGradient>
		<linearGradient id="paint1_linear_3025_3790" x1="4.2598" y1="4.74121" x2="9.47617" y2="6.42988" gradientUnits="userSpaceOnUse">
			<stop stop-color="#FFF9C4" stop-opacity="0.1" />
			<stop offset="0.00151662" stop-color="#FFF9C4" stop-opacity="0.1007" />
			<stop offset="0.3781" stop-color="#FFFCA6" stop-opacity="0.2626" />
			<stop offset="0.7007" stop-color="#FFFE94" stop-opacity="0.4014" />
			<stop offset="0.93" stop-color="#FFFF8D" stop-opacity="0.5" />
		</linearGradient>
	</defs>
</svg>