<svg xmlns="http://www.w3.org/2000/svg" width="26" height="26" viewBox="0 0 26 26" fill="none">
	<path d="M2.60352 13.3422C2.60352 9.41483 2.60352 7.45114 3.82359 6.23106C5.04367 5.01099 7.00736 5.01099 10.9347 5.01099H15.1003C19.0277 5.01099 20.9914 5.01099 22.2115 6.23106C23.4315 7.45114 23.4315 9.41483 23.4315 13.3422V15.425C23.4315 19.3524 23.4315 21.3161 22.2115 22.5361C20.9914 23.7562 19.0277 23.7562 15.1003 23.7562H10.9347C7.00736 23.7562 5.04367 23.7562 3.82359 22.5361C2.60352 21.3161 2.60352 19.3524 2.60352 15.425V13.3422Z" stroke="#ffffff" stroke-width="1.5621" />
	<path d="M7.81055 5.01108V3.44897" stroke="#ffffff" stroke-width="1.5621" stroke-linecap="round" />
	<path d="M18.2246 5.01108V3.44897" stroke="#ffffff" stroke-width="1.5621" stroke-linecap="round" />
	<path d="M9.89355 15.9459L11.4557 14.3838V18.5494" stroke="#ffffff" stroke-width="1.5621" stroke-linecap="round" stroke-linejoin="round" />
	<path d="M14.0586 17.508V15.4252C14.0586 14.85 14.5248 14.3838 15.1 14.3838C15.6751 14.3838 16.1414 14.85 16.1414 15.4252V17.508C16.1414 18.0831 15.6751 18.5494 15.1 18.5494C14.5248 18.5494 14.0586 18.0831 14.0586 17.508Z" stroke="#ffffff" stroke-width="1.5621" stroke-linecap="round" />
	<path d="M3.12402 10.218H22.9106" stroke="#ffffff" stroke-width="1.5621" stroke-linecap="round" />
</svg>