<svg xmlns="http://www.w3.org/2000/svg" viewBox="0 0 43 33" fill="none">
	<path d="M27.6314 10.6143L22.457 26.8157L25.3427 27.5291L31.5332 27.1535L31.2333 16.6913L27.6314 10.6143Z" fill="#2F2F2F" />
	<path d="M13.0052 5.43668C12.6209 5.72495 11.692 9.03863 9.44115 13.5753C7.1903 18.1119 4.30176 24.1161 4.30176 24.1161C4.30176 24.1161 4.63953 24.6024 8.91411 26.1428C13.1887 27.6831 16.7207 28.3587 16.7207 28.3587C16.7207 28.3587 26.2425 13.5374 26.3182 13.2026C26.3939 12.8648 27.9139 6.68586 27.9139 6.68586C27.9139 6.68586 21.8543 6.26364 19.2278 6.03943C16.6014 5.81522 13.4537 5.09891 13.0052 5.43668Z" fill="#F19F40" />
	<path d="M34.7452 27.121L37.9424 26.5765C37.9424 26.5765 34.9927 20.4063 33.3795 17.2936C31.7664 14.1808 28.9826 7.57387 28.7206 7.0876C28.4585 6.60132 27.3695 6.3742 26.8832 7.23901C26.3969 8.10383 22.3378 17.0111 21.5749 18.435C20.7159 20.0365 16.4472 27.9247 16.4093 28.3382C16.3715 28.7517 23.5957 28.0674 23.5957 28.0674L25.4593 22.5786L27.7102 12.8268L28.0858 12.9025L29.8853 20.8548L34.7452 27.121Z" fill="#EC5F32" />
	<path d="M25.6976 27.8081C25.6335 28.1866 23.7292 28.5156 22.646 28.5389C21.5599 28.5651 19.6177 28.6408 19.3905 28.3875C19.1634 28.1342 21.8365 25.7639 23.5545 22.6599C25.2695 19.5559 26.2799 17.4128 26.5304 16.5538C26.7837 15.6948 27.2874 13.1237 27.4884 12.6927C27.6893 12.2617 28.094 12.3404 28.2192 12.7422C28.3444 13.1469 29.6577 18.1175 30.1119 19.3026C30.5662 20.4877 32.4327 22.9598 32.9888 23.7431C33.545 24.5264 36.2938 26.6113 36.3433 26.8122C36.3928 27.0131 34.6427 27.6275 33.4518 27.7644C32.5986 27.8605 30.6098 27.712 30.4584 27.4586C30.307 27.2053 29.2791 20.4877 28.9006 18.2427C28.5221 15.9976 27.8669 12.9955 27.8669 12.9955C27.8669 12.9955 26.3789 20.2111 26.1751 22.13C25.9742 24.0489 25.7966 27.2024 25.6976 27.8081Z" fill="#9C2D1B" />
	<path d="M3.82129 21.2276C3.82129 21.2276 4.03385 21.0063 4.43569 20.9801C4.83752 20.9568 5.19276 21.2014 5.19276 21.2014L5.45192 24.9344C5.45192 24.9344 5.14326 25.2052 4.76472 25.2052C4.38619 25.2052 4.03094 25.0072 4.03094 25.0072L3.82129 21.2276Z" fill="#9C2D1B" />
	<path d="M14.6709 24.9807C14.6709 24.9807 14.9999 24.7041 15.5037 24.7041C16.0074 24.7041 16.386 24.9574 16.386 24.9574L16.4122 28.7428C16.4122 28.7428 16.0074 28.9699 15.7046 28.9699C15.4018 28.9699 14.9213 28.8185 14.9213 28.8185L14.6709 24.9807Z" fill="#9C2D1B" />
	<path d="M37.2491 23.3188C37.2491 23.3188 37.5199 23.0043 38.0004 23.0276C38.4808 23.0509 38.7429 23.2169 38.7429 23.2169L38.5158 27.1013C38.5158 27.1013 38.3381 27.3546 37.9101 27.3546C37.4821 27.3546 37.1035 27.1537 37.1035 27.1537L37.2491 23.3188Z" fill="#9C2D1B" />
</svg>