<svg xmlns="http://www.w3.org/2000/svg" width="25" height="25" viewBox="0 0 25 25" fill="none">
	<path d="M12.5 19C10.16 19 8.25 17.09 8.25 14.75C8.25 14.34 8.59 14 9 14C9.41 14 9.75 14.34 9.75 14.75C9.75 16.27 10.98 17.5 12.5 17.5C14.02 17.5 15.25 16.27 15.25 14.75C15.25 14.34 15.59 14 16 14C16.41 14 16.75 14.34 16.75 14.75C16.75 17.09 14.84 19 12.5 19Z" fill="#FFFBFB" />
	<path d="M5.68988 6.87994C5.49988 6.87994 5.29988 6.79994 5.15988 6.65994C4.86988 6.36994 4.86988 5.88994 5.15988 5.59994L8.78988 1.96994C9.07988 1.67994 9.55988 1.67994 9.84988 1.96994C10.1399 2.25994 10.1399 2.73994 9.84988 3.02994L6.21988 6.65994C6.06988 6.79994 5.87988 6.87994 5.68988 6.87994Z" fill="#FFFBFB" />
	<path d="M19.3101 6.87994C19.1201 6.87994 18.9301 6.80994 18.7801 6.65994L15.1501 3.02994C14.8601 2.73994 14.8601 2.25994 15.1501 1.96994C15.4401 1.67994 15.9201 1.67994 16.2101 1.96994L19.8401 5.59994C20.1301 5.88994 20.1301 6.36994 19.8401 6.65994C19.7001 6.79994 19.5001 6.87994 19.3101 6.87994Z" fill="#FFFBFB" />
	<path d="M20.71 11.1C20.64 11.1 20.57 11.1 20.5 11.1H20.27H4.5C3.8 11.11 3 11.11 2.42 10.53C1.96 10.08 1.75 9.37998 1.75 8.34998C1.75 5.59998 3.76 5.59998 4.72 5.59998H20.28C21.24 5.59998 23.25 5.59998 23.25 8.34998C23.25 9.38998 23.04 10.08 22.58 10.53C22.06 11.05 21.36 11.1 20.71 11.1ZM4.72 9.59998H20.51C20.96 9.60998 21.38 9.60998 21.52 9.46998C21.59 9.39998 21.74 9.15998 21.74 8.34998C21.74 7.21998 21.46 7.09998 20.27 7.09998H4.72C3.53 7.09998 3.25 7.21998 3.25 8.34998C3.25 9.15998 3.41 9.39998 3.47 9.46998C3.61 9.59998 4.04 9.59998 4.48 9.59998H4.72Z" fill="#FFFBFB" />
	<path d="M15.3898 23.25H9.35975C5.77975 23.25 4.97975 21.12 4.66975 19.27L3.25975 10.62C3.18975 10.21 3.46975 9.83 3.87975 9.76C4.27975 9.69 4.66975 9.97 4.73975 10.38L6.14975 19.02C6.43975 20.79 7.03975 21.75 9.35975 21.75H15.3898C17.9598 21.75 18.2498 20.85 18.5798 19.11L20.2598 10.36C20.3398 9.95 20.7298 9.68 21.1398 9.77C21.5498 9.85 21.8098 10.24 21.7298 10.65L20.0498 19.4C19.6598 21.43 19.0098 23.25 15.3898 23.25Z" fill="#FFFBFB" />
</svg>