<svg xmlns="http://www.w3.org/2000/svg" width="33" height="33" viewBox="0 0 33 33" fill="none">
	<path d="M28.0981 29.9879H4.94544C4.03297 29.9879 3.29199 29.2469 3.29199 28.3345V5.18177C3.29199 4.26929 4.03297 3.52832 4.94544 3.52832H28.0981C29.0106 3.52832 29.7516 4.26929 29.7516 5.18177V28.3345C29.7538 29.2469 29.0128 29.9879 28.0981 29.9879Z" fill="url(#paint0_radial_643_2355)" />
	<path d="M29.1273 16.3841H24.9497V21.1905H15.6909V6.80859H8.75606V21.1905H7.77103V13.4686H5.16992V22.8462H7.25872V28.4398H28.615V25.997H29.1273V16.3841Z" fill="#6BA3AE" />
	<path d="M27.5619 20.5205H26.9287V21.3868H27.5619V20.5205Z" fill="#3F737B" />
	<path d="M26.2973 20.5205H25.6641V21.3868H26.2973V20.5205Z" fill="#3F737B" />
	<path d="M27.5619 18.8994H26.9287V19.7657H27.5619V18.8994Z" fill="#3F737B" />
	<path d="M26.2973 18.8994H25.6641V19.7657H26.2973V18.8994Z" fill="#FDE064" />
	<path d="M27.5619 17.3604H26.9287V18.2267H27.5619V17.3604Z" fill="#FDE064" />
	<path d="M26.2973 17.3604H25.6641V18.2267H26.2973V17.3604Z" fill="#3F737B" />
	<path d="M12.4188 13.4688H11.8779V15.1376L12.4122 15.1332L12.4188 13.4688Z" fill="#3F737B" />
	<path d="M11.2364 13.4688H10.6934V15.1376H11.2364V13.4688Z" fill="#3F737B" />
	<path d="M10.1041 13.4688H9.58301V15.1376H10.1041V13.4688Z" fill="#3F737B" />
	<path d="M13.5473 10.8301L12.9756 10.8323L12.991 12.4989H13.5429L13.5473 10.8301Z" fill="#3F737B" />
	<path d="M12.4188 10.8301H11.8779V12.4989L12.4122 12.4945L12.4188 10.8301Z" fill="#3F737B" />
	<path d="M11.2364 10.8301H10.6934V12.4989H11.2364V10.8301Z" fill="#3F737B" />
	<path d="M10.1041 10.8301H9.58301V12.4989H10.1041V10.8301Z" fill="#3F737B" />
	<path d="M26.4121 11.9314C26.4737 12.004 27.2388 11.9182 27.2388 11.9182C27.2388 11.9182 27.6522 12.5141 27.7379 12.5141C27.883 12.5141 28.0304 11.7489 28.0304 11.7489C28.0304 11.7489 28.723 11.7094 28.7472 11.6148C28.7801 11.4829 28.1513 11.0322 28.1513 11.0322C28.1513 11.0322 28.27 10.3022 28.1645 10.2406C28.0502 10.1746 27.4719 10.654 27.4719 10.654C27.4719 10.654 26.7287 10.2538 26.643 10.3615C26.577 10.4451 26.8364 11.2015 26.8364 11.2015C26.8364 11.2015 26.3681 11.8787 26.4121 11.9314Z" fill="#FFD420" />
	<path d="M14.1897 8.19141L14.1875 9.86025H14.7504V8.19141H14.1897Z" fill="#3F737B" />
	<path d="M13.5473 8.19141L12.9756 8.19361L12.991 9.86025H13.5429L13.5473 8.19141Z" fill="#3F737B" />
	<path d="M12.41 8.19141H11.8779V9.86025L12.3968 9.85585L12.41 8.19141Z" fill="#3F737B" />
	<path d="M12.4188 8.19141H11.8779V9.86025L12.4122 9.85585L12.4188 8.19141Z" fill="#3F737B" />
	<path d="M11.2364 8.19141H10.6934V9.86025H11.2364V8.19141Z" fill="#3F737B" />
	<path d="M11.2364 8.19141H10.6934V9.86025H11.2364V8.19141Z" fill="#3F737B" />
	<path d="M10.1041 8.19141H9.58301V9.86025H10.1041V8.19141Z" fill="#3F737B" />
	<path d="M10.1041 8.19141H9.58301V9.86025H10.1041V8.19141Z" fill="#3F737B" />
	<path d="M5.96815 8.64947C5.99014 8.72203 6.56841 8.79678 6.56841 8.79678C6.56841 8.79678 6.77949 9.41463 6.84545 9.43222C6.95758 9.463 7.22143 8.88693 7.22143 8.88693C7.22143 8.88693 7.80849 8.92431 7.84807 8.85615C7.89425 8.77699 7.52486 8.31746 7.52486 8.31746C7.52486 8.31746 7.70955 7.76118 7.65238 7.71061C7.59082 7.66004 7.03674 7.88651 7.03674 7.88651C7.03674 7.88651 6.59699 7.46215 6.49585 7.50613C6.4079 7.5435 6.44088 8.17674 6.44088 8.17674C6.44088 8.17674 5.93737 8.54613 5.96815 8.64947Z" fill="#FFD420" />
	<path d="M23.6175 6.59361C23.5318 6.6112 23.9187 7.46211 23.8946 8.61204C23.8616 10.1556 22.6545 11.1428 21.2187 11.1054C20.1391 11.0768 19.4223 10.6063 19.3586 10.7162C19.3322 10.7624 19.5411 11.7518 20.5591 12.2905C22.1488 13.1304 23.7077 12.6423 24.5674 11.7321C25.4029 10.8482 25.6997 9.40579 25.1984 8.18329C24.6707 6.90143 23.7187 6.57382 23.6175 6.59361Z" fill="#FEF7B0" />
	<path d="M16.9375 8.19821C16.9793 8.29495 17.7819 8.3829 17.7819 8.3829C17.7819 8.3829 18.0743 9.17445 18.1666 9.19423C18.3228 9.23161 18.6526 8.46425 18.6526 8.46425C18.6526 8.46425 19.4573 8.45326 19.5035 8.35432C19.5848 8.18062 18.9868 7.65732 18.9868 7.65732C18.9868 7.65732 19.3562 6.90315 19.2 6.8108C19.0417 6.71846 18.3513 7.08125 18.3513 7.08125C18.3513 7.08125 17.6653 6.4788 17.5356 6.55795C17.3575 6.66789 17.573 7.49241 17.573 7.49241C17.573 7.49241 16.8672 8.0289 16.9375 8.19821Z" fill="#FFD420" />
	<path d="M27.7419 13.5283C27.6628 13.6888 27.7419 22.9169 27.7419 22.9169H24.2525V17.6399H23.129V15.9535H22.133V14.5221H20.3388V16.0261H19.1976V17.6025H18.0191V25.2871H16.911V16.7121H17.4277V15.0762H16.911V11.6879H16.3283L15.5346 9.23416H13.9712L13.1863 11.6879H12.5729V15.0762H12.0276V16.7121H12.5729V25.2871H10.9942V17.5806H6.2361V8.92633C6.2361 8.92633 3.30079 8.90654 3.29199 8.91534V28.3346C3.29199 29.247 4.03297 29.988 4.94544 29.988H28.0981C29.0106 29.988 29.7516 29.247 29.7516 28.3346V13.5283H27.7419Z" fill="url(#paint1_radial_643_2355)" />
	<path d="M23.1866 28.2812H22.6875V28.9607H23.1866V28.2812Z" fill="#3F737B" />
	<path d="M21.4669 28.2812H20.9678V28.9607H21.4669V28.2812Z" fill="#3F737B" />
	<path d="M19.7472 28.2812H19.248V28.9607H19.7472V28.2812Z" fill="#3F737B" />
	<path d="M10.3015 28.2178H3.71191V28.7345H10.3015V28.2178Z" fill="#3F737B" />
	<path d="M10.3015 26.3818H3.71191V26.8985H10.3015V26.3818Z" fill="#3F737B" />
	<path d="M23.1866 26.1992H22.6875V26.8786H23.1866V26.1992Z" fill="#3F737B" />
	<path d="M21.4669 26.1992H20.9678V26.8786H21.4669V26.1992Z" fill="#FDE064" />
	<path d="M19.7472 26.1992H19.248V26.8786H19.7472V26.1992Z" fill="#3F737B" />
	<path d="M10.3015 24.4805H3.71191V24.9972H10.3015V24.4805Z" fill="#3F737B" />
	<path d="M16.2267 24.1484H15.7275V25.195H16.2267V24.1484Z" fill="#3F737B" />
	<path d="M15.088 24.1484H14.5889V25.195H15.088V24.1484Z" fill="#3F737B" />
	<path d="M13.9054 24.1484H13.4062V25.195H13.9054V24.1484Z" fill="#3F737B" />
	<path d="M23.1866 24.001H22.6875V24.6804H23.1866V24.001Z" fill="#FDE064" />
	<path d="M21.4669 24.001H20.9678V24.6804H21.4669V24.001Z" fill="#3F737B" />
	<path d="M19.7472 24.001H19.248V24.6804H19.7472V24.001Z" fill="#3F737B" />
	<path d="M10.3015 22.6436H3.71191V23.1603H10.3015V22.6436Z" fill="#3F737B" />
	<path d="M23.1866 21.9229H22.6875V22.6023H23.1866V21.9229Z" fill="#FDE064" />
	<path d="M21.4669 21.9229H20.9678V22.6023H21.4669V21.9229Z" fill="#FDE064" />
	<path d="M19.7472 21.9229H19.248V22.6023H19.7472V21.9229Z" fill="#3F737B" />
	<path d="M16.2267 20.8076H15.7275V21.8542H16.2267V20.8076Z" fill="#3F737B" />
	<path d="M15.088 20.8076H14.5889V21.8542H15.088V20.8076Z" fill="#FDE064" />
	<path d="M13.9054 20.8076H13.4062V21.8542H13.9054V20.8076Z" fill="#3F737B" />
	<path d="M10.3015 20.5225H3.71191V21.0392H10.3015V20.5225Z" fill="#3F737B" />
	<path d="M23.1866 19.7236H22.6875V20.403H23.1866V19.7236Z" fill="#FDE064" />
	<path d="M21.4669 19.7236H20.9678V20.403H21.4669V19.7236Z" fill="#FDE064" />
	<path d="M19.7472 19.7236H19.248V20.403H19.7472V19.7236Z" fill="#FDE064" />
	<path d="M16.2267 18.8291H15.7275V19.8757H16.2267V18.8291Z" fill="#FDE064" />
	<path d="M15.088 18.8291H14.5889V19.8757H15.088V18.8291Z" fill="#3F737B" />
	<path d="M13.9054 18.8291H13.4062V19.8757H13.9054V18.8291Z" fill="#3F737B" />
	<path d="M10.3015 18.6865H3.71191V19.2032H10.3015V18.6865Z" fill="#FDE064" />
	<path d="M16.2267 16.8506H15.7275V17.8972H16.2267V16.8506Z" fill="#3F737B" />
	<path d="M15.088 16.8506H14.5889V17.8972H15.088V16.8506Z" fill="#3F737B" />
	<path d="M13.9054 16.8506H13.4062V17.8972H13.9054V16.8506Z" fill="#FDE064" />
	<path d="M22.3839 16.7734H21.8848V18.904H22.3839V16.7734Z" fill="#FDE064" />
	<path d="M21.4581 16.7734H20.959V18.904H21.4581V16.7734Z" fill="#FDE064" />
	<path d="M20.5128 16.7734H20.0137V18.904H20.5128V16.7734Z" fill="#FDE064" />
	<path d="M5.41823 16.5889H5.03125V17.4024H5.41823V16.5889Z" fill="#3F737B" />
	<path d="M4.09889 16.5889H3.71191V17.4024H4.09889V16.5889Z" fill="#3F737B" />
	<path d="M5.41823 14.9551H5.03125V15.7686H5.41823V14.9551Z" fill="#3F737B" />
	<path d="M4.09889 14.9551H3.71191V15.7686H4.09889V14.9551Z" fill="#FDE064" />
	<path d="M5.41823 13.3213H5.03125V14.1348H5.41823V13.3213Z" fill="#3F737B" />
	<path d="M4.09889 13.3213H3.71191V14.1348H4.09889V13.3213Z" fill="#FDE064" />
	<path d="M14.3323 14.5304H15.3569V13.0089C15.3569 13.0089 15.3943 12.4372 14.8402 12.424C14.3191 12.4109 14.3125 12.9957 14.3125 12.9957C14.3125 12.9957 14.3455 14.5304 14.3323 14.5304Z" fill="#3F737B" />
	<path d="M5.41823 11.6885H5.03125V12.502H5.41823V11.6885Z" fill="#FDE064" />
	<path d="M4.09889 11.6885H3.71191V12.502H4.09889V11.6885Z" fill="#3F737B" />
	<path d="M5.41823 10.0518H5.03125V10.8653H5.41823V10.0518Z" fill="#3F737B" />
	<path d="M4.09889 10.0518H3.71191V10.8653H4.09889V10.0518Z" fill="#FDE064" />
	<path d="M4.59589 5.88749C4.62667 5.97105 5.35005 6.03261 5.35005 6.03261C5.35005 6.03261 5.67327 6.72521 5.75242 6.7384C5.85137 6.7538 6.18997 6.10517 6.18997 6.10517C6.18997 6.10517 6.93314 6.04141 6.96173 5.95565C7.0035 5.83692 6.4802 5.36419 6.4802 5.36419C6.4802 5.36419 6.6517 4.54407 6.59014 4.50009C6.51099 4.44512 5.83597 4.80352 5.83597 4.80352C5.83597 4.80352 5.21593 4.36597 5.11479 4.44512C5.02024 4.51768 5.17855 5.27844 5.17855 5.27844C5.17855 5.27844 4.54312 5.74458 4.59589 5.88749Z" fill="#FFD420" />
	<defs>
		<radialGradient id="paint0_radial_643_2355" cx="0" cy="0" r="1" gradientUnits="userSpaceOnUse" gradientTransform="translate(17.083 33.3749) scale(29.6568 29.6568)">
			<stop offset="0.4216" stop-color="#A8D793" />
			<stop offset="0.5608" stop-color="#7DAD8B" />
			<stop offset="0.7052" stop-color="#4C7D82" />
			<stop offset="0.7809" stop-color="#457986" />
			<stop offset="0.8899" stop-color="#326C8F" />
			<stop offset="1" stop-color="#185B9D" />
		</radialGradient>
		<radialGradient id="paint1_radial_643_2355" cx="0" cy="0" r="1" gradientUnits="userSpaceOnUse" gradientTransform="translate(16.9876 -8.53524) scale(38.0483 38.0483)">
			<stop offset="0.0392" stop-color="#163387" />
			<stop offset="0.3779" stop-color="#163284" />
			<stop offset="0.6215" stop-color="#17317B" />
			<stop offset="0.8346" stop-color="#182E6B" />
			<stop offset="1" stop-color="#1A2B59" />
		</radialGradient>
	</defs>
</svg>