<svg xmlns="http://www.w3.org/2000/svg" width="36" height="35" viewBox="0 0 36 35" fill="none">
	<path d="M17.999 34.8867C27.4051 34.8867 35.0302 27.2616 35.0302 17.8555C35.0302 8.44936 27.4051 0.824219 17.999 0.824219C8.59291 0.824219 0.967773 8.44936 0.967773 17.8555C0.967773 27.2616 8.59291 34.8867 17.999 34.8867Z" fill="#C5BBFF" />
	<path d="M17.9997 31.5199C25.5465 31.5199 31.6644 25.402 31.6644 17.8552C31.6644 10.3083 25.5465 4.19043 17.9997 4.19043C10.4529 4.19043 4.33496 10.3083 4.33496 17.8552C4.33496 25.402 10.4529 31.5199 17.9997 31.5199Z" fill="#FCEBCD" />
	<path d="M14.1102 3.96377C12.2879 4.49174 9.73602 5.30073 7.00535 8.56221C4.30874 11.7896 3.75238 15.5393 3.57923 18.1252C3.57923 18.1252 2.02088 20.0753 1.94707 19.712C1.3595 16.8876 2.54601 10.5747 5.64853 7.23661C9.25915 3.35349 13.9541 1.9768 15.6515 1.71849C15.9439 1.67307 14.6637 3.80482 14.1102 3.96377Z" fill="#1D1D1D" />
	<path d="M17.9995 30.7968C25.1465 30.7968 30.9404 25.003 30.9404 17.8559C30.9404 10.7089 25.1465 4.91504 17.9995 4.91504C10.8524 4.91504 5.05859 10.7089 5.05859 17.8559C5.05859 25.003 10.8524 30.7968 17.9995 30.7968Z" fill="white" />
	<path fill-rule="evenodd" clip-rule="evenodd" d="M17.9983 17.2881C18.3118 17.2881 18.5659 17.5422 18.5659 17.8557V26.086C18.5659 26.3995 18.3118 26.6536 17.9983 26.6536C17.6848 26.6536 17.4307 26.3995 17.4307 26.086V17.8557C17.4307 17.5422 17.6848 17.2881 17.9983 17.2881Z" fill="#563428" />
	<path d="M17.9995 19.292C18.7926 19.292 19.4356 18.6491 19.4356 17.856C19.4356 17.0629 18.7926 16.4199 17.9995 16.4199C17.2064 16.4199 16.5635 17.0629 16.5635 17.856C16.5635 18.6491 17.2064 19.292 17.9995 19.292Z" fill="#563428" />
	<path fill-rule="evenodd" clip-rule="evenodd" d="M17.3926 17.2575C17.7228 16.9227 18.2619 16.9189 18.5967 17.2491L22.8878 21.4806C23.2226 21.8108 23.2264 22.3498 22.8962 22.6846C22.566 23.0195 22.027 23.0232 21.6922 22.6931L17.4011 18.4616C17.0662 18.1314 17.0625 17.5923 17.3926 17.2575Z" fill="#563428" />
	<path fill-rule="evenodd" clip-rule="evenodd" d="M17.29 29.4926V28.0742H18.7085V29.4926H17.29Z" fill="#6596A3" />
	<path fill-rule="evenodd" clip-rule="evenodd" d="M17.29 7.6362V6.21777H18.7085V7.6362H17.29Z" fill="#6596A3" />
	<path fill-rule="evenodd" clip-rule="evenodd" d="M17.29 29.4926V28.0742H18.7085V29.4926H17.29Z" fill="#6596A3" />
	<path fill-rule="evenodd" clip-rule="evenodd" d="M17.29 7.6362V6.21777H18.7085V7.6362H17.29Z" fill="#6596A3" />
	<path fill-rule="evenodd" clip-rule="evenodd" d="M6.3623 17.1445H7.78073V18.563H6.3623V17.1445Z" fill="#6596A3" />
	<path fill-rule="evenodd" clip-rule="evenodd" d="M28.2178 17.1445H29.6362V18.563H28.2178V17.1445Z" fill="#6596A3" />
	<path fill-rule="evenodd" clip-rule="evenodd" d="M6.3623 17.1445H7.78073V18.563H6.3623V17.1445Z" fill="#6596A3" />
	<path fill-rule="evenodd" clip-rule="evenodd" d="M28.2178 17.1445H29.6362V18.563H28.2178V17.1445Z" fill="#6596A3" />
	<path fill-rule="evenodd" clip-rule="evenodd" d="M11.8125 27.7215L12.5217 26.4932L13.2587 26.9187L12.5495 28.1471L11.8125 27.7215Z" fill="#B0BEC5" />
	<path fill-rule="evenodd" clip-rule="evenodd" d="M22.7412 8.79184L23.4504 7.56348L24.1875 7.98901L23.4782 9.21737L22.7412 8.79184Z" fill="#B0BEC5" />
	<path fill-rule="evenodd" clip-rule="evenodd" d="M11.8125 27.7215L12.5217 26.4932L13.2587 26.9187L12.5495 28.1471L11.8125 27.7215Z" fill="#B0BEC5" />
	<path fill-rule="evenodd" clip-rule="evenodd" d="M22.7412 8.79184L23.4504 7.56348L24.1875 7.98901L23.4782 9.21737L22.7412 8.79184Z" fill="#B0BEC5" />
	<path fill-rule="evenodd" clip-rule="evenodd" d="M23.4504 28.1471L22.7412 26.9187L23.4782 26.4932L24.1875 27.7215L23.4504 28.1471Z" fill="#B0BEC5" />
	<path fill-rule="evenodd" clip-rule="evenodd" d="M12.5217 9.21737L11.8125 7.98901L12.5495 7.56348L13.2587 8.79184L12.5217 9.21737Z" fill="#B0BEC5" />
	<path fill-rule="evenodd" clip-rule="evenodd" d="M23.4504 28.1471L22.7412 26.9187L23.4782 26.4932L24.1875 27.7215L23.4504 28.1471Z" fill="#B0BEC5" />
	<path fill-rule="evenodd" clip-rule="evenodd" d="M12.5217 9.21737L11.8125 7.98901L12.5495 7.56348L13.2587 8.79184L12.5217 9.21737Z" fill="#B0BEC5" />
	<path fill-rule="evenodd" clip-rule="evenodd" d="M27.8651 24.0429L26.6367 23.3337L27.0623 22.5967L28.2906 23.3059L27.8651 24.0429Z" fill="#B0BEC5" />
	<path fill-rule="evenodd" clip-rule="evenodd" d="M8.93539 13.1132L7.70703 12.404L8.13257 11.667L9.36093 12.3762L8.93539 13.1132Z" fill="#B0BEC5" />
	<path fill-rule="evenodd" clip-rule="evenodd" d="M27.8651 24.0429L26.6367 23.3337L27.0623 22.5967L28.2906 23.3059L27.8651 24.0429Z" fill="#B0BEC5" />
	<path fill-rule="evenodd" clip-rule="evenodd" d="M8.93539 13.1132L7.70703 12.404L8.13257 11.667L9.36093 12.3762L8.93539 13.1132Z" fill="#B0BEC5" />
	<path fill-rule="evenodd" clip-rule="evenodd" d="M7.70703 23.3059L8.93539 22.5967L9.36093 23.3337L8.13257 24.0429L7.70703 23.3059Z" fill="#B0BEC5" />
	<path fill-rule="evenodd" clip-rule="evenodd" d="M26.6367 12.3762L27.8651 11.667L28.2906 12.404L27.0623 13.1132L26.6367 12.3762Z" fill="#B0BEC5" />
	<path fill-rule="evenodd" clip-rule="evenodd" d="M7.70703 23.3059L8.93539 22.5967L9.36093 23.3337L8.13257 24.0429L7.70703 23.3059Z" fill="#B0BEC5" />
	<path fill-rule="evenodd" clip-rule="evenodd" d="M26.6367 12.3762L27.8651 11.667L28.2906 12.404L27.0623 13.1132L26.6367 12.3762Z" fill="#B0BEC5" />
</svg>