<svg xmlns="http://www.w3.org/2000/svg" width="16" height="16" viewBox="0 0 16 16" fill="none">
	<path d="M15.7483 8.48675L14.3109 7.03683L15.2234 5.5994L15.2359 5.58691C15.3359 5.42441 15.3359 5.21192 15.2609 5.03693C15.1859 4.87444 15.0484 4.76195 14.8734 4.71195L13.6859 4.18698L14.4109 2.17458C14.5109 1.9496 14.4609 1.68711 14.2859 1.49962C14.1109 1.31213 13.8359 1.26213 13.5985 1.36213L11.4486 2.51207L10.8986 1.43712C10.8361 1.26213 10.7111 1.14964 10.5486 1.09964C10.3611 1.03714 10.1361 1.09964 9.97364 1.23713L9.08619 2.07459L7.18629 0.524672C7.0363 0.399678 6.84881 0.349681 6.66132 0.387179C6.47383 0.424677 6.32384 0.537171 6.23634 0.699662L5.32389 2.24958L2.87402 1.08714C2.64903 0.987147 2.39904 1.01215 2.21155 1.17464C2.02406 1.33713 1.94907 1.57462 2.01156 1.8121L2.56153 3.7745L1.64908 3.92449C1.43659 3.96199 1.2491 4.11198 1.17411 4.32447C1.09911 4.51196 1.13661 4.73695 1.2616 4.89944L1.67408 5.6494L0.436646 6.44936C0.249156 6.57435 0.136662 6.79934 0.161661 7.02433C0.186659 7.24932 0.324152 7.43681 0.524141 7.5243L2.13656 8.31176L1.3741 9.4242C1.2366 9.58669 1.18661 9.78668 1.2616 9.97417C1.3366 10.1742 1.53659 10.3242 1.78657 10.3492L2.83652 10.5241L0.54914 14.5989C0.411647 14.8489 0.461645 15.1614 0.674133 15.3614C0.786628 15.4614 0.93662 15.5239 1.08661 15.5239C1.21161 15.5239 1.3366 15.4864 1.43659 15.4114L5.62387 12.499L5.86136 13.2865L5.87386 13.324C5.94885 13.499 6.08635 13.624 6.27384 13.6865C6.44883 13.7365 6.63632 13.7115 6.78631 13.599L8.71121 12.424L10.2611 13.3615C10.4361 13.474 10.6611 13.499 10.8486 13.4115C11.0361 13.324 11.1736 13.149 11.1986 12.949L11.3986 12.0866L13.6359 12.924C13.8734 13.0115 14.1359 12.949 14.2984 12.7615C14.4609 12.5865 14.5109 12.3241 14.4109 12.0991L13.6859 9.98667L15.4109 9.4742C15.6108 9.4242 15.7733 9.27421 15.8358 9.07422C15.9233 8.87423 15.8858 8.64924 15.7483 8.48675ZM13.386 9.29921C13.211 9.34921 13.061 9.4617 12.986 9.62419C12.911 9.78668 12.8985 9.97417 12.9735 10.1367L13.6484 12.1116L11.5361 11.3241C11.3611 11.2616 11.1611 11.2741 10.9986 11.3741C10.8486 11.4741 10.7361 11.6241 10.7111 11.7991L10.5111 12.6365L9.04869 11.7491C8.8362 11.6116 8.57372 11.6116 8.37373 11.7616L6.52383 12.8865L6.28634 12.0866L6.27384 12.0491C6.19884 11.8741 6.06135 11.7491 5.87386 11.6866C5.68637 11.6241 5.49888 11.6616 5.34889 11.7741L1.48659 14.4614L3.57398 10.7241C3.67398 10.5366 3.67398 10.3242 3.57398 10.1367C3.47399 9.96167 3.299 9.83668 3.09901 9.81168L2.12406 9.64919L2.79902 8.67424C2.92401 8.52425 2.97401 8.33676 2.93651 8.14927C2.89902 7.94928 2.76152 7.78679 2.58653 7.71179L1.04911 6.94933L2.21155 6.19937C2.36154 6.09938 2.46154 5.94939 2.48654 5.77439C2.51154 5.6119 2.46154 5.44941 2.37404 5.32442L1.98656 4.62446L2.84902 4.47446C3.02401 4.44946 3.174 4.33697 3.2615 4.19948C3.34899 4.04949 3.37399 3.8745 3.33649 3.6995L2.82402 1.8871L5.1114 2.97454C5.41138 3.11204 5.76137 2.99954 5.92386 2.71206L6.82381 1.19964L8.68621 2.72456C8.9112 2.92455 9.24868 2.92455 9.48617 2.72456L10.3236 1.9496L10.8236 2.92455C10.8736 3.07454 10.9986 3.19953 11.1361 3.26203C11.2986 3.33702 11.4861 3.33702 11.6361 3.26203L13.5985 2.21208L12.9485 4.02449C12.8735 4.18698 12.886 4.38697 12.9735 4.54946C13.0485 4.69945 13.186 4.81195 13.361 4.86194L14.4984 5.36192L13.6734 6.66185C13.4985 6.88684 13.4985 7.23682 13.6859 7.46181L15.0234 8.82423L13.386 9.29921Z" fill="#ffffff" />
</svg>