<svg xmlns="http://www.w3.org/2000/svg" width="16" height="28" viewBox="0 0 16 28" fill="none">
	<path d="M6.9461 0.551336C6.59567 0.553554 6.41602 0.589041 6.41602 1.38528C6.41602 2.18152 6.49143 26.641 6.49143 26.9072C6.49143 27.1733 6.75758 27.2864 7.21226 27.2864C7.66694 27.2864 8.76704 27.2864 9.07089 27.2864C9.37475 27.2864 9.48787 27.0979 9.45016 26.6033C9.41246 26.1109 9.40802 1.42299 9.40802 1.12135C9.40802 0.819707 9.27051 0.582387 8.78478 0.564643C8.38998 0.553554 7.36308 0.549118 6.9461 0.551336Z" fill="white" />
	<path d="M3.7561 9.48289C3.7561 9.48289 3.70065 8.09446 4.68099 7.19619C5.58369 6.3689 6.42651 6.431 6.42651 6.431L6.43538 7.80834C6.43538 7.80834 6.94994 7.63091 7.81937 7.66639C8.68881 7.70188 9.4052 8.00574 9.4052 8.00574V6.55964C9.4052 6.55964 9.8865 6.53746 10.614 7.39359C10.9777 7.82165 11.2771 8.71326 11.377 9.17903C11.5034 9.77788 11.723 10.0551 12.3018 10.0973C12.8807 10.1394 13.3199 10.135 13.677 10.1217C14.1849 10.1039 12.5924 7.33814 12.5924 7.33814C12.5924 7.33814 10.8136 4.65664 10.2347 4.6389C9.65361 4.62116 6.06055 4.71209 5.71676 4.89396C5.37298 5.07584 3.12177 6.65501 3.12177 6.65501L2.81348 9.10362C2.81348 9.10362 3.66739 10.1017 3.66739 10.0285C3.66517 9.95531 3.7561 9.48289 3.7561 9.48289Z" fill="white" />
	<path d="M2.02873 9.48311L0.334222 8.15234C0.334222 8.15234 -0.0273024 10.8982 1.34117 12.5527C2.34368 13.7615 3.51919 14.2583 4.55275 14.713C5.51977 15.1366 6.45353 15.4294 6.45353 15.4294L6.45796 17.053L9.41892 18.6277L9.41448 16.4962C9.41448 16.4962 10.539 17.1062 11.1023 17.705C11.6657 18.3039 11.7189 19.0469 11.7367 19.5193C11.7544 19.9917 11.5193 20.7347 11.5193 20.7347L11.1933 22.1853L14.9682 18.3748L6.06095 12.4596L2.02873 9.48311Z" fill="white" />
	<path d="M0.540668 18.0039C0.540668 18.0039 0.0882082 18.392 0.219067 19.4456C0.338836 20.4237 0.891103 21.9496 2.54125 23.2915C4.1914 24.6333 6.48919 24.8906 6.48919 24.8906V26.0107L9.43906 26.0062L9.43462 24.8951C9.43462 24.8951 11.1957 24.8219 12.6839 23.877C14.2409 22.89 15.3787 20.8761 15.3144 18.9842C15.2922 18.3211 14.8708 18.4253 14.8708 18.4253C14.8708 18.4253 9.45458 23.1096 9.09084 23.1451C8.7271 23.1806 5.20722 22.564 5.20722 22.564L1.92467 18.9909L0.540668 18.0039Z" fill="white" />
	<path d="M1.92504 17.6117C0.820507 17.7204 0.436803 17.9378 0.41906 18.266C0.401316 18.5921 1.36169 24.2944 8.0754 24.199C14.5163 24.1081 15.2793 20.189 15.3325 18.6653C15.399 16.8332 14.3167 15.3095 11.8858 13.8745C10.0738 12.8077 5.69776 11.2063 4.9725 10.7539C4.3049 10.3369 3.37558 9.412 3.502 8.03244C3.62842 6.65288 5.13441 5.29328 7.91127 5.31103C10.6881 5.32877 11.7816 7.26282 11.9945 7.83283C12.3361 8.75327 12.2695 9.95318 12.7752 10.1107C13.0103 10.1838 13.7001 10.1572 14.0993 10.1018C14.4986 10.0463 15.0664 9.74026 15.0974 8.93958C15.1329 8.0147 14.1725 2.84245 7.74936 2.8979C1.61675 2.94892 0.10633 6.71055 0.343649 8.86861C0.565444 10.9158 2.23334 12.8409 4.91927 13.93C7.6052 15.019 12.3582 16.3431 12.305 18.7917C12.2562 20.9897 9.70781 21.7659 7.6052 21.6595C5.48262 21.5508 4.32042 20.3176 3.8857 18.8649C3.46651 17.4742 2.66805 17.5408 1.92504 17.6117Z" fill="white" />
	<path d="M2.94324 18.3051C2.71701 17.8837 1.20437 17.948 1.01141 18.6622C0.816229 19.3741 1.50823 20.4853 1.97178 20.3899C2.60833 20.2569 2.06937 19.4939 2.31778 19.2033C2.56397 18.9083 3.2227 18.8263 2.94324 18.3051Z" fill="#C0B6FF" />
	<path d="M7.79856 0.930424C7.35737 0.919339 6.86298 0.914905 6.83637 1.50907C6.81198 2.08328 6.85189 2.52446 7.07359 2.54663C7.32633 2.57324 7.68327 2.02785 7.83847 1.79063C8.038 1.49355 8.27522 0.943726 7.79856 0.930424Z" fill="#C0B6FF" />
	<path d="M4.40955 4.43043C4.23877 4.18424 3.29392 3.98684 1.98312 5.60594C0.672316 7.22504 1.15583 8.07894 1.45525 8.11665C1.86335 8.16766 2.08958 7.83275 2.34021 7.2827C2.6973 6.49977 3.12314 6.02291 3.78853 5.51944C4.35632 5.08916 4.70232 4.85405 4.40955 4.43043Z" fill="#C0B6FF" />
</svg>