<svg xmlns="http://www.w3.org/2000/svg" width="27" height="28" viewBox="0 0 27 28" fill="none">
	<path d="M12.5365 21.04H5.25488" stroke="#ffffff" stroke-width="1.5" stroke-linecap="round" stroke-linejoin="round" />
	<path fill-rule="evenodd" clip-rule="evenodd" d="M17.1055 21.041C17.1055 23.3379 17.8715 24.1029 20.1674 24.1029C22.4634 24.1029 23.2294 23.3379 23.2294 21.041C23.2294 18.744 22.4634 17.979 20.1674 17.979C17.8715 17.979 17.1055 18.744 17.1055 21.041Z" stroke="#ffffff" stroke-width="1.5" stroke-linecap="round" stroke-linejoin="round" />
	<path d="M15.9482 9.24023H23.2288" stroke="#ffffff" stroke-width="1.5" stroke-linecap="round" stroke-linejoin="round" />
	<path fill-rule="evenodd" clip-rule="evenodd" d="M11.38 9.23877C11.38 6.94277 10.6139 6.17676 8.3179 6.17676C6.02088 6.17676 5.25488 6.94277 5.25488 9.23877C5.25488 11.5358 6.02088 12.3008 8.3179 12.3008C10.6139 12.3008 11.38 11.5358 11.38 9.23877Z" stroke="#ffffff" stroke-width="1.5" stroke-linecap="round" stroke-linejoin="round" />
</svg>