<svg xmlns="http://www.w3.org/2000/svg" width="33" height="33" viewBox="0 0 33 33" fill="none">
	<path d="M27.9634 29.9889H4.81068C3.8982 29.9889 3.15723 29.2479 3.15723 28.3354V5.18275C3.15723 4.27027 3.8982 3.5293 4.81068 3.5293H27.9634C28.8758 3.5293 29.6168 4.27027 29.6168 5.18275V28.3354C29.619 29.2479 28.878 29.9889 27.9634 29.9889Z" fill="url(#paint0_radial_643_2351)" />
	<path d="M29.619 19.3879V28.3917C29.619 29.3042 28.878 30.0452 27.9656 30.0452H4.81068C3.8982 30.0452 3.15723 29.3042 3.15723 28.3917V19.3C3.15723 19.3 11.5322 19.0801 17.2511 18.9921C22.9678 18.9042 29.619 19.3879 29.619 19.3879Z" fill="#B4D218" />
	<path d="M25.6508 30.0374H4.81115C3.97124 30.0374 3.27864 29.4108 3.1709 28.6017C3.1709 28.6017 4.30105 28.0366 5.40481 27.7266C6.50638 27.4165 9.64178 26.5898 9.53844 25.143C9.4351 23.6963 6.49319 23.7798 6.68008 22.1814C6.76363 21.4624 8.01471 20.6664 9.43949 20.1871C11.2864 19.5649 13.4434 19.367 13.4632 19.4C13.4852 19.4395 12.7552 20.4509 13.0652 21.5877C13.3752 22.7244 14.7978 23.4434 17.4495 24.0283C20.1012 24.6132 22.733 25.1782 24.2832 27.1417C25.7915 29.0524 25.6508 30.0374 25.6508 30.0374Z" fill="#00C1ED" />
	<path d="M4.02051 29.8374C4.25577 29.9649 4.52402 30.0375 4.80985 30.0375H24.2115C24.2115 30.0375 23.9718 28.6369 21.7313 26.8647C20.2494 25.6928 18.7872 25.3762 17.1667 24.998C14.5239 24.3801 12.6989 23.9976 12.1119 22.1044C11.7645 20.9787 12.257 20.3565 12.1888 20.2531C12.1206 20.1498 7.83971 21.0622 7.80233 22.177C7.76495 23.3357 10.6211 23.1137 10.6101 25.1277C10.5991 27.023 7.97823 27.9421 7.02178 28.2763C4.95497 29.0019 4.02051 29.8374 4.02051 29.8374Z" fill="url(#paint1_radial_643_2351)" />
	<path d="M3.15723 19.2429L13.9882 19.2517L12.8361 17.5037C12.8361 17.5037 12.3018 17.3191 11.4377 16.3516C10.5736 15.3842 8.29127 11.9321 7.67563 10.9449C7.05998 9.95768 6.13431 8.8891 5.27021 8.93087C4.40611 8.97265 3.15723 9.48496 3.15723 9.48496V19.2429Z" fill="#79A5AB" />
	<path d="M16.4106 12.0654L13.5566 18.2197L13.9854 19.0948L18.0289 18.7826L20.586 10.4164L18.6225 9.88867L16.4106 12.0654Z" fill="#86B4BB" />
	<path d="M3.15527 8.45595C3.15527 8.45595 3.67198 8.31743 4.23265 8.34821C5.0132 8.38999 5.8949 9.07599 5.8949 9.07599C5.8949 9.07599 4.88128 9.0672 4.25244 9.64327C3.72255 10.1292 3.15747 10.9559 3.15747 10.9559L3.15527 8.45595Z" fill="#E0E0E0" />
	<path d="M18.7055 13.4026L18.0283 15.399L17.7139 17.7913L25.1896 18.4355C25.1896 18.4355 28.3733 11.1599 28.3579 11.1093C28.3404 11.0587 24.9103 6.10938 24.9103 6.10938L22.2696 7.04164L20.1083 9.79665L18.7055 13.4026Z" fill="#3E727B" />
	<path d="M29.6182 7.19174C29.6182 7.19174 28.4726 6.17592 27.813 5.94506C27.1534 5.71419 24.5962 5.59766 24.5962 5.59766L22.3535 6.40899L20.423 8.6539L19.2665 11.2418L18.6729 13.4691C18.6729 13.4691 19.0576 13.9133 19.2423 13.0931C19.3874 12.4555 19.5787 11.6376 20.3879 9.85661C21.197 8.07563 22.8658 6.45077 24.2488 6.62227C25.3306 6.75639 25.8407 8.33508 26.087 9.47403C26.3354 10.613 26.4586 12.8425 26.4586 12.8425L24.8579 13.7L23.9014 16.4396C23.9014 16.4396 23.8509 16.82 23.7695 17.3631C23.686 17.9084 23.686 18.502 23.686 18.502L28.1252 18.6516L29.6182 17.5808V7.19174Z" fill="#79A5AB" />
	<path d="M13.5752 17.6684L14.2678 17.7674C14.2678 17.7674 14.8131 16.3976 15.0593 15.7709C15.3078 15.1443 15.5057 14.6496 15.686 14.4517C15.8685 14.2538 16.3632 14.2032 16.4951 13.99C16.627 13.7745 17.1218 12.176 17.4845 11.5801C17.8473 10.9865 18.2937 10.4588 18.6719 10.3093C19.0522 10.1598 19.3491 10.2587 19.3491 10.2587C19.3491 10.2587 18.8873 11.5296 18.6565 12.5366C18.4256 13.5436 18.0298 15.3993 18.0298 15.3993C18.0298 15.3993 18.4256 15.2103 18.5905 14.9794C18.7554 14.7485 18.795 14.3945 18.8412 14.0735C19.0632 12.5168 19.3425 11.7362 19.536 11.0832C19.791 10.2235 20.4155 8.96144 20.7145 8.47552C21.3917 7.37615 21.8776 6.96499 22.4713 6.55383C23.0649 6.14046 24.1291 5.69632 25.3516 5.76228C26.5719 5.82824 28.4408 6.28558 28.4408 6.28558C28.4408 6.28558 27.0754 5.22579 25.2109 5.24338C23.3464 5.26097 22.1041 6.00634 21.1147 7.14529C20.1252 8.28423 19.5799 9.85193 19.5799 9.85193C19.5799 9.85193 19.0017 9.47155 18.2761 9.63646C17.5505 9.80136 16.8733 10.0652 16.1477 11.3031C15.4221 12.541 14.5141 15.1971 14.5141 15.1971L13.5752 17.6684Z" fill="#E0E0DF" />
	<path d="M26.874 13.8907C26.874 13.8907 25.8516 13.6269 25.3064 14.0226C24.9172 14.3063 24.5984 14.8867 24.2663 15.9861C23.9651 16.9821 23.8134 17.1075 23.8046 17.0789C23.765 16.9602 23.9343 15.2034 24.1344 14.403C24.2839 13.8094 24.6929 12.8771 25.6032 12.6704C26.6256 12.4374 26.8411 13.3125 26.874 13.8907Z" fill="#E0E0DF" />
	<path d="M5.44613 11.7608C5.42414 11.7608 5.53847 12.0246 5.60224 12.3698C5.68139 12.7942 5.76274 13.7682 5.78913 15.3162C5.81551 16.8641 5.89247 18.5263 5.89247 18.5263L7.01822 18.1943C7.01822 18.1943 6.98084 15.8526 6.85112 14.6389C6.72139 13.4252 6.5389 12.803 6.21129 12.2753C6.05518 12.0246 5.64841 11.7564 5.44613 11.7608Z" fill="#ACE4FE" />
	<path d="M5.75293 18.5788C5.75293 18.5788 5.99699 18.2204 6.30261 18.1566C6.61044 18.0928 6.72477 18.1302 6.72477 18.1302C6.72477 18.1302 6.90287 17.6179 7.58228 17.6311C8.25949 17.6443 8.49035 18.5898 8.49035 18.5898L5.76612 18.9482L5.75293 18.5788Z" fill="#FCFDFE" />
	<path d="M6.46803 14.2023C6.3405 14.2309 6.41745 14.6487 6.44164 15.3655C6.46803 16.1328 6.41526 16.6187 6.65932 16.6187C6.89018 16.6187 6.78684 16.1592 6.76266 15.3149C6.73847 14.5739 6.69669 14.1518 6.46803 14.2023Z" fill="#FCFDFE" />
	<path d="M6.01133 13.7961C6.21582 13.7697 6.21362 14.1787 6.22901 14.8581C6.2422 15.4474 6.26639 15.8036 6.12567 15.8168C5.93438 15.8344 5.96076 15.6519 5.92118 14.7174C5.8948 14.1171 5.86182 13.8159 6.01133 13.7961Z" fill="#FCFDFE" />
	<path d="M22.9286 8.52748C22.6493 8.50549 22.579 8.80672 22.568 9.63564C22.5548 10.5437 22.4844 11.3177 22.4844 11.3177C22.4844 11.3177 21.8072 12.2895 21.5939 12.9162C21.3785 13.5428 21.1806 14.154 21.0662 14.7477C20.9805 15.1875 20.864 15.7833 21.1322 15.8866C21.4796 16.0186 21.8248 14.4509 22.1392 13.4768C22.4734 12.4368 23.1946 11.5463 23.1946 11.5463C23.1946 11.5463 23.2144 10.5547 23.1946 9.74558C23.1858 9.46634 23.221 8.54947 22.9286 8.52748Z" fill="#79A5AB" />
	<path d="M6.11257 19.4232C6.11257 19.4232 11.5698 19.2803 14.9009 19.3089C18.232 19.3375 21.7654 19.3375 21.7654 19.3375C21.7654 19.3375 19.8701 15.5468 19.7249 15.5754C19.582 15.604 18.4607 17.5565 18.4607 17.5565C18.4607 17.5565 17.2404 15.4369 17.126 15.3797C17.0117 15.3226 15.7298 18.2535 15.7298 18.2535L15.1736 17.3916L14.5183 18.436L13.6652 16.5824L12.1437 18.7086C12.1437 18.7086 11.8425 18.6141 11.4687 18.5965C10.9058 18.5701 10.2484 18.8801 10.2484 18.8801C10.2484 18.8801 9.04128 18.4778 8.20796 18.4778C7.37464 18.4778 4.99121 19.1374 4.99121 19.1374L6.11257 19.4232Z" fill="#0A7E1D" />
	<path d="M14.5166 18.4426L14.7409 18.8758L15.3609 17.6819C15.3609 17.6819 15.174 17.3367 15.1322 17.3389C15.0443 17.3455 14.5166 18.4426 14.5166 18.4426Z" fill="#02AB47" />
	<path d="M13.4235 16.1937C13.551 16.2245 13.7709 16.8138 13.7709 16.8138L12.9002 18.9377L12.1416 18.7157C12.1438 18.7157 13.2827 16.1585 13.4235 16.1937Z" fill="#02AB47" />
	<path d="M17.1345 15.3584C16.8948 15.3694 15.7295 18.2476 15.7295 18.2476C15.7295 18.2476 16.0373 18.6961 16.0637 18.7005C16.2308 18.7247 17.3719 15.7256 17.3719 15.7256C17.3719 15.7256 17.1939 15.354 17.1345 15.3584Z" fill="#02AB47" />
	<path d="M20.492 19.9834C20.492 19.9834 20.3909 20.245 20.5536 20.2868C20.7163 20.3286 21.9278 20.5089 23.8847 20.4275C25.8437 20.3462 29.6168 20.267 29.6168 20.267L29.619 17.5802C29.619 17.5802 28.0029 13.8445 27.8006 13.8841C27.5983 13.9237 26.1977 17.213 26.1977 17.213C26.1977 17.213 25.6304 16.1752 25.5315 16.1356C25.4304 16.096 23.8429 18.0661 23.8429 18.0661C23.8429 18.0661 22.8139 15.1374 22.6512 15.1176C22.4907 15.0978 20.492 19.9834 20.492 19.9834Z" fill="#0A7E1D" />
	<path d="M25.217 15.8064C25.3247 15.7514 25.6809 16.3319 25.6809 16.3319C25.6809 16.3319 24.3287 18.6736 24.2276 18.7153C24.1264 18.7549 23.8428 18.0689 23.8428 18.0689C23.8428 18.0689 24.9729 15.9273 25.217 15.8064Z" fill="#02AB47" />
	<path d="M22.421 14.5938C22.2407 14.5938 20.9149 17.7028 20.7324 18.1469C20.5499 18.5911 19.9299 20.0312 20.0112 20.1522C20.0926 20.2731 20.8467 20.3325 20.8467 20.3325C20.8467 20.3325 21.7021 17.8435 22.0648 17.0343C22.4276 16.2274 22.8366 15.4271 22.8366 15.4271C22.8366 15.4271 22.6079 14.5938 22.421 14.5938Z" fill="#02AB47" />
	<path d="M28.1348 19.5723C28.1348 19.5723 24.0803 20.7728 23.9242 20.9509C23.7659 21.129 23.7461 21.4632 24.1221 21.6193C24.4981 21.7754 24.6893 21.6633 25.0477 21.8941C25.1907 21.9865 24.8608 22.9539 24.8608 22.9539C24.8608 22.9539 23.1568 23.5102 23.1282 23.7565C23.0931 24.0643 23.3151 24.3545 23.7087 24.5502C24.0605 24.7261 24.5684 24.7525 24.5684 24.7525C24.5684 24.7525 22.5874 26.2564 22.6841 26.6302C22.783 27.004 23.2074 27.6262 24.1594 27.602C25.0257 27.5801 25.1621 27.2678 25.6348 27.6218C26.1075 27.9758 26.0899 28.7894 27.3674 28.7036C28.2535 28.6442 28.4712 28.0836 28.9219 27.8571C29.2847 27.6768 29.6233 27.6526 29.6233 27.6526L29.6167 20.2649L28.1348 19.5723Z" fill="#0A7E1D" />
	<path d="M25.421 26.5584C26.1048 26.5584 25.9729 27.5434 26.8172 27.6995C27.6637 27.8579 28.8048 26.145 28.1958 25.2589C27.5867 24.3729 26.8172 25.437 26.0124 25.2392C25.2055 25.0413 25.2055 24.6675 24.5965 24.6873C23.9874 24.7071 22.7209 25.8834 22.688 26.5364C22.6682 26.93 23.297 27.1213 23.9083 27.0289C24.5151 26.9388 25.1066 26.5584 25.421 26.5584Z" fill="#02AB47" />
	<path d="M26.364 22.5451C27.0324 22.5627 27.6436 21.9361 28.4704 22.013C29.2971 22.0922 29.3367 23.0156 29.2377 23.3916C29.1388 23.7654 28.9035 24.414 28.2923 24.414C27.6832 24.414 27.6634 24.06 27.2896 24.0996C26.9159 24.1392 26.6608 24.513 26.1881 24.4536C25.7154 24.3942 25.4999 23.9413 25.1459 23.8819C24.7919 23.8226 24.2202 24.1568 23.7673 24.137C23.3143 24.1172 23.123 23.739 23.123 23.739C23.123 23.739 23.2154 23.4092 23.5298 23.2333C23.8442 23.0574 24.1015 22.9387 24.5148 22.5451C24.9282 22.1515 25.0447 21.8965 25.0447 21.8965C25.0447 21.8965 25.6362 22.5253 26.364 22.5451Z" fill="#02AB47" />
	<path d="M27.6815 16.4233C27.2285 16.4496 26.9933 17.5842 26.0874 18.6858C25.1815 19.7873 23.915 20.9592 23.915 20.9592C23.915 20.9592 24.0206 21.2275 24.3372 21.2253C24.7901 21.2209 25.1441 20.8119 25.4981 20.9505C25.8521 21.089 25.7928 21.698 26.3446 21.7376C26.8965 21.7772 27.6441 21.0494 28.1344 21.0296C28.6269 21.0098 28.6269 21.5221 29.0997 21.5023C29.5724 21.4825 29.6186 21.2649 29.6186 21.2649V19.7653C29.6186 19.7653 28.8842 18.8045 28.5874 17.958C28.2927 17.1115 28.0179 16.4035 27.6815 16.4233Z" fill="#02AB47" />
	<path d="M3.16016 27.466C3.16016 27.466 4.04405 27.5913 4.71686 27.1252C5.6865 26.4524 5.74147 25.7312 5.74147 25.7312C5.74147 25.7312 5.99872 26.0918 7.00135 26.1116C8.00397 26.1314 8.43492 25.2782 8.41294 25.1617C8.40194 25.1045 7.41471 23.9018 7.41471 23.9018L6.25817 21.5734L6.3923 21.0083L4.69927 18.7458L4.03086 14.8101C4.03086 14.8101 3.85276 14.4363 3.73622 14.5352C3.61969 14.6342 3.16455 15.5203 3.16455 15.5203L3.16016 27.466Z" fill="#0A7E1D" />
	<path d="M4.85573 21.8947C4.46436 21.8551 4.08837 21.3032 4.00922 19.9268C3.93006 18.5482 4.08837 16.3055 3.98943 15.6964C3.89049 15.0874 3.73438 14.5355 3.73438 14.5355C3.73438 14.5355 3.81353 14.3376 3.96964 14.5553C4.12575 14.773 4.95467 16.2087 5.34825 17.1916C5.74182 18.1766 7.07206 20.5402 7.27654 20.892C7.63273 21.5033 7.90757 22.02 7.43485 22.0398C6.96212 22.0596 6.31129 21.6396 6.31129 21.6396C6.31129 21.6396 7.09844 23.2733 7.3337 23.6075C7.56897 23.9417 8.23958 24.9267 8.23958 24.9267C8.23958 24.9267 8.12085 25.3203 7.49201 25.1422C6.86318 24.9641 6.1266 23.3436 5.9573 22.9083C5.79239 22.4839 5.7704 22.1057 5.79239 21.9254C5.83197 21.5912 6.11561 21.5209 6.11561 21.5209C6.11561 21.5209 5.80119 21.1867 5.64288 20.9294C5.48457 20.6744 5.30867 20.3204 5.30867 20.3204C5.30867 20.3204 5.44719 21.954 4.85573 21.8947Z" fill="#00AA48" />
	<path d="M21.2951 9.41843C21.0467 9.44921 20.9675 9.84498 20.9477 10.3419C20.9279 10.8366 20.9301 11.184 20.9301 11.184C20.9301 11.184 20.5827 11.9272 20.5014 12.257C20.42 12.5868 20.6839 12.7363 20.9148 12.4549C21.1456 12.1734 21.6403 11.25 21.6403 11.25C21.6403 11.25 21.6579 10.5904 21.6579 10.3265C21.6579 10.0627 21.7085 9.37005 21.2951 9.41843Z" fill="#79A5AB" />
	<path d="M11.6527 9.22521C11.7538 9.82107 12.6025 9.74412 13.8228 9.7661C15.1839 9.79249 16.2415 9.90243 16.3272 9.17684C16.413 8.44906 14.6364 8.52382 13.924 8.53261C13.2094 8.54361 11.5318 8.50843 11.6527 9.22521Z" fill="#FFFFFE" />
	<path d="M6.79404 6.20798C6.80943 6.98413 8.04512 7.17322 10.0877 7.19081C12.1304 7.20621 13.4122 7.0325 13.3815 6.27174C13.3507 5.51098 11.0222 5.37026 9.8195 5.32189C8.61679 5.27352 6.77865 5.41643 6.79404 6.20798Z" fill="#FFFFFE" />
	<defs>
		<radialGradient id="paint0_radial_643_2351" cx="0" cy="0" r="1" gradientUnits="userSpaceOnUse" gradientTransform="translate(12.9587 21.7491) scale(17.8105 17.8105)">
			<stop offset="0.2828" stop-color="#AFE4FE" />
			<stop offset="0.7021" stop-color="#84D4F9" />
			<stop offset="0.9653" stop-color="#67C9F6" />
		</radialGradient>
		<radialGradient id="paint1_radial_643_2351" cx="0" cy="0" r="1" gradientUnits="userSpaceOnUse" gradientTransform="translate(14.4746 17.3382) scale(25.1317 25.1317)">
			<stop offset="0.3072" stop-color="#8CDBFC" />
			<stop offset="0.4122" stop-color="#54D1F5" />
			<stop offset="0.5139" stop-color="#23C7EE" />
			<stop offset="0.5642" stop-color="#10C4EC" />
		</radialGradient>
	</defs>
</svg>
