<svg xmlns="http://www.w3.org/2000/svg" viewBox="0 0 10 9" fill="none">
	<path d="M5.15586 5.36097C4.41488 5.36097 3.80957 4.75914 3.80957 4.01468C3.80957 3.27022 4.41488 2.67188 5.15586 2.67188C5.89683 2.67188 6.50214 3.2737 6.50214 4.01816C6.50214 4.76262 5.89683 5.36097 5.15586 5.36097ZM5.15586 3.19369C4.70362 3.19369 4.33139 3.56244 4.33139 4.01816C4.33139 4.47388 4.70014 4.84263 5.15586 4.84263C5.61157 4.84263 5.98032 4.47388 5.98032 4.01816C5.98032 3.56244 5.6081 3.19369 5.15586 3.19369Z" fill="white" />
	<path d="M5.15645 8.34905C4.64159 8.34905 4.12326 8.15424 3.71972 7.7681C2.69348 6.78013 1.5594 5.20424 1.98729 3.32918C2.37343 1.62806 3.85887 0.866211 5.15645 0.866211C5.15645 0.866211 5.15645 0.866211 5.15993 0.866211C6.45751 0.866211 7.94295 1.62806 8.32909 3.33266C8.7535 5.20772 7.61942 6.78013 6.59318 7.7681C6.18965 8.15424 5.67131 8.34905 5.15645 8.34905ZM5.15645 1.38803C4.14413 1.38803 2.84307 1.92724 2.49867 3.44398C2.12296 5.08248 3.15268 6.49487 4.08499 7.38891C4.68682 7.96987 5.62957 7.96987 6.23139 7.38891C7.16023 6.49487 8.18994 5.08248 7.82119 3.44398C7.47331 1.92724 6.16878 1.38803 5.15645 1.38803Z" fill="white" />
</svg>