<svg xmlns="http://www.w3.org/2000/svg" width="20" height="21" viewBox="0 0 20 21" fill="none">
    <path d="M10.3043 9.42237C9.95546 9.82436 10.0974 10.3242 10.2923 10.5707C10.6566 11.0321 11.197 11.0583 11.4842 11.6403C11.7373 12.1524 11.5851 13.0822 10.4651 13.1591C9.34497 13.236 8.23344 12.3062 7.99745 11.2016C7.70504 9.8296 8.10519 8.29855 9.68698 7.5138C11.2688 6.72905 13.3465 7.13279 14.4939 8.38944C15.6807 9.68628 16.522 11.3676 15.9543 13.8005C15.3866 16.2334 12.8933 18.3133 8.98928 17.8991C5.7744 17.5582 2.81431 14.5853 2.95624 10.097C3.09476 5.72408 6.64994 3.043 9.98966 2.50294C13.4422 1.9454 15.8756 3.45897 17.2967 4.61425C18.1808 5.33433 18.9417 6.13831 19.1606 6.38474C19.465 6.7273 19.9267 6.74478 19.99 6.19598C20.0738 5.47066 19.6326 4.48142 18.6032 3.2405C17.5737 2.00133 14.588 -0.408846 9.68698 0.0595569C2.14568 0.777891 -0.451878 7.6344 0.062846 11.8972C0.57757 16.16 3.53424 20.851 10.3642 20.9979C14.5401 21.087 17.7669 18.3832 18.7707 14.8055C19.3265 12.8253 19.1521 10.3207 17.9773 8.37021C16.3989 5.7538 14.5982 4.69115 12.1358 4.43772C10.1641 4.23498 8.29329 4.81699 7.06206 5.9478C4.54829 8.25486 4.47134 12.4163 7.09113 14.5031C8.47456 15.606 10.123 15.8087 11.3902 15.4085C12.2606 15.1341 13.0199 14.6604 13.4662 13.7761C13.9963 12.7239 13.945 11.691 13.579 10.8818C13.2764 10.2106 12.6351 9.64608 12.0759 9.3577C11.2329 8.926 10.6326 9.04485 10.3043 9.42237Z" fill="#5264FF"/>
</svg>