<svg xmlns="http://www.w3.org/2000/svg" width="15" height="19" viewBox="0 0 15 19" fill="none">
	<path d="M5.42495 6.22852H9.53553M7.48024 4.17323V8.2838M4.19178 11.5723H10.7687M4.19178 14.0386H10.7687M3.53409 17.3271H11.4264C12.3473 17.3271 12.8077 17.3271 13.1594 17.1479C13.4688 16.9902 13.7203 16.7387 13.878 16.4293C14.0572 16.0776 14.0572 15.6172 14.0572 14.6963V3.51553C14.0572 2.59468 14.0572 2.13425 13.878 1.78253C13.7203 1.47315 13.4688 1.22161 13.1594 1.06398C12.8077 0.884766 12.3473 0.884766 11.4264 0.884766H3.53409C2.61323 0.884766 2.15281 0.884766 1.80109 1.06398C1.4917 1.22161 1.24017 1.47315 1.08253 1.78253C0.90332 2.13425 0.90332 2.59468 0.90332 3.51554V14.6963C0.90332 15.6172 0.90332 16.0776 1.08253 16.4293C1.24017 16.7387 1.4917 16.9902 1.80109 17.1479C2.15281 17.3271 2.61323 17.3271 3.53409 17.3271Z" stroke="#404040" stroke-width="1.64423" stroke-linecap="round" />
</svg>