<svg xmlns="http://www.w3.org/2000/svg" width="32" height="32" viewBox="0 0 32 32" fill="none">
	<path d="M16.3255 31.4332C24.974 31.4332 31.985 24.42 31.985 15.7688C31.985 7.11766 24.974 0.104492 16.3255 0.104492C7.677 0.104492 0.666016 7.11766 0.666016 15.7688C0.666016 24.42 7.677 31.4332 16.3255 31.4332Z" fill="#999999" />
	<path d="M25.9381 13.9158C25.8158 10.9437 23.369 8.60107 20.3804 8.60107C18.7201 8.60107 17.2171 9.33534 16.2034 10.4892C15.1897 9.33534 13.6867 8.60107 12.0264 8.60107C9.09021 8.60107 6.67837 10.8738 6.46865 13.7584C6.46865 13.8283 6.45117 13.8983 6.45117 13.9682V20.2619C6.45117 21.0311 7.08035 21.6605 7.84934 21.6605H7.88429C8.65329 21.6605 9.28246 21.0311 9.28246 20.2619V14.178C9.28246 12.657 10.5233 11.4158 12.0438 11.4158C13.5643 11.4158 14.8052 12.657 14.8052 14.178V19.3179C14.8052 20.0871 15.4344 20.7165 16.2034 20.7165H16.2383C17.0073 20.7165 17.6365 20.0871 17.6365 19.3179V14.178C17.6365 12.657 18.8774 11.4158 20.3979 11.4158C21.9184 11.4158 23.1593 12.657 23.1593 14.178V20.2794C23.1593 21.0486 23.771 21.6605 24.54 21.6605H24.5749C25.3439 21.6605 25.9556 21.0486 25.9556 20.2794V14.0556C25.9381 14.0032 25.9381 13.9507 25.9381 13.9158Z" fill="#1F1F1F" />
	<path d="M20.6595 22.1851C20.5896 22.0802 20.3973 22.29 20.3973 22.29C19.6283 23.1292 18.0205 23.6711 16.3601 23.6711C14.6998 23.6711 13.1094 23.1292 12.3229 22.29C12.3229 22.29 12.1132 22.0802 12.0608 22.1851C11.9734 22.3075 12.0957 22.4998 12.0957 22.4998C13.0919 23.9334 14.5949 24.5628 16.3601 24.5628C18.1253 24.5628 19.6283 23.9159 20.6245 22.4998C20.6245 22.5173 20.7469 22.325 20.6595 22.1851Z" fill="#1F1F1F" />
</svg>