<svg xmlns="http://www.w3.org/2000/svg" width="31" height="28" viewBox="0 0 31 28" fill="none">
	<path d="M19.0946 17.624L19.5011 18.7016C19.5011 18.7016 18.8776 18.9984 18.9549 19.8888C19.0322 20.7793 19.6982 21.2781 20.2669 21.3555C20.9703 21.4527 21.5315 20.7469 21.4068 19.9337C21.282 19.1206 20.7208 18.6542 20.7208 18.6542L20.7059 17.7163L19.0946 17.624Z" fill="#858585" />
	<path d="M6.56055 4.86225C6.57551 4.77994 7.56574 3.88699 8.27911 3.30832C8.99496 2.72964 9.4165 2.32807 9.58611 2.33305C9.77069 2.33555 10.3294 2.64983 10.7135 2.86932C11.0453 3.05889 11.4967 3.35072 11.4967 3.35072L10.7809 4.61532C10.7809 4.61532 8.2367 7.66832 8.1943 7.64088C8.15689 7.61345 6.56055 4.86225 6.56055 4.86225Z" fill="white" />
	<path d="M8.29395 7.02217C8.29395 7.02217 9.62839 5.38592 10.247 4.6975C10.8655 4.00908 11.4991 3.35059 11.4991 3.35059C11.4991 3.35059 11.746 3.4753 11.7336 3.72223C11.7186 3.96917 11.6088 4.16123 11.4442 4.38322C11.2796 4.60272 8.98237 7.56093 8.98237 7.56093L8.29395 7.02217Z" fill="white" />
	<path d="M18.1885 9.20427C18.1885 9.20427 27.0731 1.03799 27.1853 1.00058C27.2976 0.963162 27.6842 1.03799 28.2729 1.22257C28.864 1.40714 29.8767 1.88605 29.8592 1.99579C29.8418 2.10554 29.7295 2.69669 29.7295 2.69669C29.7295 2.69669 22.6582 13.9584 22.1793 13.3323C21.7004 12.7062 18.1885 9.20427 18.1885 9.20427Z" fill="white" />
	<path d="M22.5186 12.5882C22.5186 12.5882 29.4626 2.48383 29.5674 2.35163C29.722 2.15458 29.5973 1.91513 29.4277 1.73056C29.2556 1.54348 29.1159 1.49609 29.1159 1.49609C29.1159 1.49609 29.6746 1.70561 29.9241 1.87024C30.2034 2.05232 30.4229 2.25934 30.3755 2.46138C30.3281 2.66342 23.1895 13.5185 23.1596 13.4562C23.1297 13.3938 22.5186 12.5882 22.5186 12.5882Z" fill="white" />
	<path d="M3.11513 0.633036C3.11513 0.633036 2.90062 0.46592 2.78089 0.608094C2.66117 0.750268 3.85593 7.48981 3.85593 7.48981L6.72186 9.47277L13.3866 15.469L19.5724 17.9259L21.0191 18.3973C21.0191 18.3973 22.3859 17.4669 22.3859 17.4096C22.3859 17.3522 20.9642 12.9872 20.9642 12.9872L7.78442 8.06599L3.11513 0.633036Z" fill="#9A9A9A" />
	<path d="M5.73814 1.99317C5.47624 1.70633 3.11914 0.633789 3.11914 0.633789L6.72587 8.43341L7.19978 8.96469C7.19978 8.96469 8.73626 10.5161 10.3501 11.7308C11.9639 12.9456 13.3257 13.4943 14.4956 14.1104C15.9273 14.8637 17.1021 15.2453 18.0374 15.6519C19.1748 16.1482 20.1725 16.4251 20.6789 17.101C21.1428 17.7196 21.0206 18.3981 21.0206 18.3981C21.0206 18.3981 21.9659 18.8296 23.1233 19.094C24.2806 19.3608 26.8048 19.6826 27.4508 18.1636C28.0969 16.6446 27.184 15.0881 24.984 13.7786C22.784 12.4692 21.7764 12.2596 21.7764 12.2596L21.1678 10.571C21.1678 10.571 19.5739 9.24405 18.5687 8.86242C17.5635 8.48329 13.3307 7.72254 13.3307 7.72254L8.39704 7.13389C8.39454 7.13638 5.94516 2.22265 5.73814 1.99317Z" fill="#C8C8C8" />
	<path d="M12.9339 15.025C12.7094 15.1073 10.5768 17.7886 10.053 18.4197C9.59159 18.9759 4.35111 25.0794 4.19397 25.3737C4.03683 25.6681 4.44839 26.0397 4.44839 26.0397L7.39164 27.217L16.8874 19.4124L18.9402 16.7111C18.9402 16.7111 17.5708 15.9204 15.9021 15.5463C14.2334 15.1721 13.1509 14.9476 12.9339 15.025Z" fill="white" />
	<path d="M18.9367 16.7119C18.9367 16.7119 7.74484 26.6416 7.48793 26.7065C7.28589 26.7564 6.24079 26.4795 5.37527 26.0655C4.63697 25.7138 4.19548 25.3745 4.19548 25.3745C4.19548 25.3745 3.8812 25.7287 4.2728 26.2775C4.6644 26.8262 6.95914 27.7865 7.3707 27.7292C7.78226 27.6693 8.44823 27.0033 9.01692 26.5319C9.58562 26.0605 19.4904 17.6074 19.4904 17.6074C19.4904 17.6074 19.4804 17.2956 19.3532 17.0985C19.1786 16.8242 18.9367 16.7119 18.9367 16.7119Z" fill="white" />
	<path d="M13.3791 15.817C13.0698 15.6623 12.7181 16.0515 12.4188 16.4356C12.1194 16.8197 6.27035 23.8012 6.07829 24.0581C5.88623 24.315 5.73658 24.5919 6.01344 24.7615C6.29031 24.9311 6.56967 24.6343 6.82408 24.3125C7.08099 23.9932 13.2069 16.69 13.3791 16.4979C13.5512 16.3059 13.8056 16.0315 13.3791 15.817Z" fill="#B4DDFA" />
	<path d="M26.2472 22.3667C26.4866 22.661 28.5045 21.4513 29.5721 19.5955C30.5698 17.8595 31.126 15.6671 30.46 15.6496C29.7941 15.6321 29.9088 16.8718 29.6319 17.8146C29.4598 18.4033 29.0508 19.598 27.9233 20.7055C26.8084 21.8055 26.0127 22.0749 26.2472 22.3667Z" fill="#E1E0DF" />
	<path d="M16.7636 11.9917C16.6089 11.9343 16.5141 12.0441 16.559 12.2511C16.5915 12.4058 16.9107 14.249 16.9382 14.4037C16.9656 14.5583 17.1352 14.6855 17.3597 14.7828C17.5842 14.8801 18.991 15.5436 19.1606 15.571C19.3302 15.5984 19.385 15.374 19.2878 15.0796C19.1905 14.7853 18.7789 13.4484 18.3624 12.8996C18.0307 12.4606 17.1277 12.1264 16.7636 11.9917Z" fill="white" />
	<path d="M12.7578 7.99119C12.6256 8.24312 12.7777 8.46511 14.0298 8.84424C15.2071 9.20092 15.8133 9.45035 16.4593 9.71724C17.1053 9.98413 18.0157 10.5154 18.527 10.6651C19.0384 10.8172 19.6669 10.8746 20.0261 10.4181C20.2431 10.1438 19.9887 9.63991 19.2279 9.18346C18.4672 8.72701 17.462 8.34788 15.8307 8.04357C14.1995 7.74426 12.9473 7.62952 12.7578 7.99119Z" fill="#E0E0E0" />
	<path d="M13.5938 10.6882C13.2994 10.5909 13.3817 10.7331 13.3892 10.9725C13.3917 11.0997 13.5763 12.5339 13.5913 12.6312C13.6062 12.7285 13.6112 12.8632 13.9155 13.0104C14.2373 13.1675 15.7014 13.9258 15.8436 13.9956C15.9833 14.0654 16.0257 13.8559 15.9833 13.5741C15.9409 13.2922 15.7488 11.7507 15.6939 11.651C15.6391 11.5512 13.7559 10.7431 13.5938 10.6882Z" fill="white" />
	<path d="M20.9923 10.6232C20.87 10.7105 20.7029 10.8976 20.2639 11.3016C19.7576 11.7656 19.1964 12.0374 19.2163 12.3393C19.2313 12.6037 19.4907 13.12 19.8374 13.8308C20.1667 14.5043 20.4809 15.1852 20.5832 15.3374C20.7952 15.6467 21.2168 15.7464 21.541 15.5195C21.8653 15.2925 22.2444 15.0131 22.6809 14.4918C23.1174 13.9705 23.2446 13.6612 23.2296 13.2247C23.2147 12.7882 21.4063 10.8128 21.3215 10.7005C21.2342 10.5883 21.1469 10.5109 20.9923 10.6232Z" fill="white" />
	<path d="M28.5995 13.1028C28.7142 13.2924 27.1578 13.5643 25.5515 15.7443C23.8479 18.054 23.9576 19.2113 23.9452 19.6229C23.9277 20.2315 23.8055 20.8052 23.3914 20.6755C23.1046 20.5857 22.9051 20.0245 23.2742 18.473C23.6434 16.9216 24.7284 15.1033 25.9456 14.1779C27.6442 12.8833 28.4898 12.9183 28.5995 13.1028Z" fill="#E1E0DF" />
	<path d="M27.3075 16.5753C27.3075 16.5753 27.5844 15.5028 28.2853 14.525C28.9862 13.5473 29.6521 13.0285 29.9115 13.0484C30.171 13.0659 30.2807 13.2504 30.2807 13.2504L28.3776 17.2114C28.3776 17.2114 28.5197 17.386 28.6445 17.5905C28.7966 17.8424 28.5621 18.2365 28.5621 18.2365L26.8461 18.6805L24.277 22.5591C24.277 22.5591 23.833 22.4843 23.8704 21.9505C23.9078 21.4142 24.2944 20.3791 24.923 19.5834C25.5515 18.7877 26.447 18.3961 26.447 18.3961L26.5867 17.8674C26.5867 17.8674 26.3248 17.6055 26.4944 17.2014C26.7139 16.6776 27.3075 16.5753 27.3075 16.5753Z" fill="#799FAE" />
	<path d="M27.9014 16.8265C27.9014 16.8265 28.056 16.9387 28.1683 17.026C28.2805 17.1133 28.3977 17.2305 28.3977 17.2305C28.3977 17.2305 29.2109 16.2802 29.6698 15.3374C30.0839 14.4868 30.5702 13.4143 30.2834 13.2497C29.9941 13.085 29.0113 14.4868 28.6472 15.1752C28.2805 15.8637 27.9014 16.8265 27.9014 16.8265Z" fill="white" />
	<path d="M26.4949 17.2031C26.4949 17.2031 26.7019 17.929 27.3105 18.1011C28.0787 18.3156 28.6474 17.5847 28.6474 17.5847C28.6474 17.5847 28.9692 18.0686 28.8345 18.4727C28.6923 18.8942 27.8917 19.0838 27.5674 19.0988C27.2432 19.1112 26.9887 19.0863 26.9887 19.0863C26.9887 19.0863 26.637 20.2312 26.0185 21.1366C25.4747 21.9298 24.5668 22.7878 24.2824 22.5633C23.9981 22.3388 24.6366 21.2289 25.0756 20.5455C25.6543 19.6425 26.5597 18.8743 26.5597 18.8743C26.5597 18.8743 26.3427 18.5899 26.3028 18.1734C26.2454 17.6022 26.4949 17.2031 26.4949 17.2031Z" fill="white" />
	<path d="M11.0725 9.77236C10.8804 9.69254 10.7208 9.81726 10.7058 10.0293C10.6908 10.2413 10.7781 11.0519 10.8205 11.1741C10.8654 11.3063 12.6015 12.2866 12.7411 12.2866C12.8035 12.2866 12.7337 11.8152 12.6962 11.4161C12.6439 10.8574 12.6164 10.4658 12.5541 10.3685C12.5117 10.3011 11.2396 9.8422 11.0725 9.77236Z" fill="white" />
	<path d="M3.7172 6.84175C3.56754 6.87168 0.512047 10.3288 0.469644 10.4585C0.427241 10.5882 0.751498 11.0222 0.751498 11.0222L2.48502 11.7804L7.57585 8.22857C7.57335 8.22857 3.9342 6.79934 3.7172 6.84175Z" fill="white" />
	<path d="M0.469323 10.4584C0.469323 10.4584 2.19536 11.3114 2.54207 11.269C2.88877 11.2266 7.58301 8.22852 7.58301 8.22852C7.58301 8.22852 8.05443 8.55277 7.77756 8.91195C7.5007 9.26863 3.09331 12.1321 2.58946 12.0996C2.16543 12.0722 0.494265 11.3439 0.40946 11.1393C0.232366 10.7003 0.469323 10.4584 0.469323 10.4584Z" fill="white" />
</svg>