<svg xmlns="http://www.w3.org/2000/svg" width="20" height="24" viewBox="0 0 20 24" fill="none">
	<path d="M10.7101 24.2912C8.84628 24.2912 7.33532 23.2167 7.33532 21.8912C7.33532 20.5657 8.84628 19.4912 10.7101 19.4912C12.574 19.4912 14.085 20.5657 14.085 21.8912C14.085 23.2167 12.574 24.2912 10.7101 24.2912Z" fill="#CC3333" />
	<path d="M11.1599 23.951C9.5601 23.951 8.2632 23.0287 8.2632 21.891C8.2632 20.7533 9.5601 19.8311 11.1599 19.8311C12.7597 19.8311 14.0566 20.7533 14.0566 21.891C14.0566 23.0287 12.7597 23.951 11.1599 23.951Z" fill="#F44336" />
	<path opacity="0.2" d="M12.7916 21.1711C12.4541 20.8111 11.7229 20.5111 10.9636 20.4311C10.7667 20.4111 10.598 20.4111 10.4292 20.4511C10.3167 20.4911 10.2042 20.5711 10.2886 20.6511C10.3448 20.7311 10.4855 20.7511 10.598 20.7711C11.301 20.9111 11.9479 21.2511 12.3416 21.6511C12.4822 21.8111 12.7353 22.2311 13.0166 22.1311C13.2978 21.9911 13.2416 21.6111 12.7916 21.1711Z" fill="white" />
	<path d="M15.3212 4.35128C15.9118 4.75128 16.2774 5.23127 16.4462 5.83127C16.5305 6.21126 17.0086 6.47126 17.543 6.47126H15.6024C15.0681 6.47126 14.59 6.21126 14.5056 5.83127C14.365 5.23127 13.9713 4.75128 13.3807 4.35128C12.7901 3.97129 12.0589 3.73129 11.1871 3.63129C11.4964 3.59129 11.8339 3.57129 12.1714 3.57129C13.4651 3.59129 14.5056 3.85129 15.3212 4.35128Z" fill="#CC3333" />
	<path d="M3.11723 1.931C4.83277 0.83101 7.19514 0.291016 10.2325 0.291016C10.57 0.291016 10.8793 0.291016 11.1887 0.311015C8.62944 0.411014 6.57642 0.951009 5.05775 1.931C3.34222 3.03099 2.49852 4.57097 2.49852 6.53096C2.49852 8.29094 3.65158 10.0109 5.92958 11.7109L8.68569 13.6309C8.71381 13.6509 8.74193 13.6709 8.77006 13.6909C9.58564 14.3709 10.0637 15.2909 10.2325 16.4709C10.2887 16.8709 10.7668 17.1909 11.3574 17.1909H9.4169C8.85443 17.1909 8.34821 16.8709 8.29196 16.4709C8.15134 15.2909 7.64512 14.3709 6.82954 13.6909C6.80141 13.6709 6.77329 13.6509 6.74517 13.6309L3.98906 11.7109C1.68293 10.0109 0.557992 8.29094 0.557992 6.53096C0.586116 4.57097 1.42982 3.03099 3.11723 1.931Z" fill="#CC3333" />
	<path d="M10.2324 16.4909C10.0917 15.3109 9.58551 14.3909 8.76993 13.7109C8.74181 13.6909 8.71368 13.6709 8.68556 13.6509L5.92946 11.7309C3.62333 10.031 2.49839 8.31098 2.49839 6.55099C2.49839 4.59101 3.34209 3.05103 5.05763 1.95104C6.5763 0.971049 8.60119 0.431054 11.1886 0.331055C13.6915 0.431054 15.7446 0.991048 17.3476 1.97104C18.8381 2.89103 19.7381 4.09102 19.9912 5.591C20.0756 6.071 19.5412 6.47099 18.8663 6.47099H17.5163C16.982 6.47099 16.5039 6.211 16.4195 5.831C16.2789 5.23101 15.8852 4.75101 15.2946 4.35102C14.5071 3.83102 13.4384 3.57102 12.1448 3.57102C11.8073 3.57102 11.4698 3.59102 11.1604 3.63102C10.8511 3.59102 10.5417 3.57102 10.2042 3.57102C8.8543 3.57102 7.81373 3.83102 7.11064 4.37102C6.40755 4.91101 6.04195 5.671 6.04195 6.67099C6.04195 7.43099 6.35131 8.15098 6.9419 8.79097C7.33563 9.23097 8.26371 9.95096 9.75425 10.971C11.2167 11.9909 12.2291 12.9309 12.7072 13.7709C13.101 14.4509 13.3541 15.3109 13.4103 16.3509C13.4384 16.8109 12.9322 17.1909 12.2854 17.1909H11.301C10.7948 17.2109 10.2886 16.8909 10.2324 16.4909Z" fill="#F44336" />
	<path opacity="0.2" d="M17.1509 2.67109C16.1948 1.83109 14.3667 1.2311 12.5387 1.1511C12.0887 1.1311 11.6387 1.1511 11.2731 1.2911C10.9919 1.3911 10.795 1.6111 10.9919 1.81109C11.1606 1.97109 11.4981 2.03109 11.7794 2.07109C13.4949 2.31109 15.1542 3.01108 16.251 3.93107C16.6728 4.29107 17.3759 5.29106 17.9947 4.97106C18.6415 4.59107 18.3321 3.69108 17.1509 2.67109Z" fill="white" />
</svg>