<svg xmlns="http://www.w3.org/2000/svg" width="24" height="25" viewBox="0 0 24 25" fill="none">
	<g clip-path="url(#clip0_573_2765)">
		<path d="M12.7149 11.4599L12.5847 3.08009C12.5847 3.08009 12.418 -2.16703 12.418 -2.58367C12.418 -3.00031 12.3347 -3.36227 12.1056 -3.38311C11.8764 -3.40394 11.6498 -3.23207 11.629 -2.667C11.6082 -2.10192 11.4988 2.91604 11.4988 2.91604C11.4988 2.91604 10.7983 2.91083 10.7853 3.01239C10.7567 3.22071 10.6213 7.43924 10.4754 9.0277C10.3296 10.6162 9.72807 14.6915 8.97551 16.6809C8.60053 17.6705 7.75162 19.6782 6.92093 21.1C6.08504 22.5348 4.99395 24.0556 4.34034 24.9696C3.03832 26.7898 2.28836 27.4382 2.50189 27.6439C2.60085 27.7403 5.19967 27.6882 5.19967 27.6882C5.19967 27.6882 6.86364 25.3862 7.26727 24.7899C7.81151 23.9852 8.48335 23.4696 9.32184 23.5999C9.89994 23.691 10.3843 24.1024 10.5041 25.0373C10.6629 26.2508 10.7098 28.2819 10.8582 28.3965C11.0848 28.5762 12.6784 28.5735 12.6784 28.5735L12.7149 11.4599ZM10.9207 22.5582C10.6629 22.678 10.09 22.3317 9.50152 22.2562C8.91301 22.1807 8.47554 22.4228 8.17347 22.1364C7.8714 21.8499 8.29325 21.0791 8.67084 20.3552C9.04842 19.6313 9.86348 18.3033 10.2853 18.3944C10.7358 18.4907 10.8895 19.6626 11.0249 20.6573C11.103 21.225 11.1759 22.4358 10.9207 22.5582ZM10.3921 17.7746C10.2567 17.759 9.85307 16.7591 9.97025 16.6419C10.09 16.5221 11.0874 16.6263 11.1473 16.7617C11.2072 16.8971 10.5275 17.7903 10.3921 17.7746ZM10.6785 15.9622C10.2853 15.9466 10.1239 15.7044 10.1499 15.4805C10.1942 15.1029 10.4546 14.9961 10.7697 15.0586C11.1004 15.1237 11.1941 15.3164 11.2072 15.5404C11.2228 15.7826 11.0718 15.9779 10.6785 15.9622Z" fill="#FF2C5C" />
		<path d="M8.93945 19.5405L10.6295 22.832L11.2622 22.4101L9.27798 18.6108C9.28058 18.6108 9.07226 19.2749 8.93945 19.5405Z" fill="#FF2C5C" />
		<path d="M10.9494 19.116L7.7959 22.1054L8.30889 22.5429L11.2228 19.9024L10.9494 19.116Z" fill="#FF2C5C" />
		<path d="M12.2208 12.6421C12.2208 12.6421 8.65587 12.6603 8.50484 12.6603C8.3538 12.6603 8.07257 12.8791 8.4137 13.3712C8.65587 13.7202 9.3824 14.6185 9.5178 14.6524C9.65321 14.6863 12.2937 14.6524 12.2937 14.6524L12.2208 12.6421Z" fill="#C9C7CA" />
		<path d="M12.0819 8.19173L10.5351 8.16309C10.5351 8.16309 10.5117 8.67348 10.4518 9.24636C10.4075 9.67342 10.3008 10.3791 10.3008 10.3791L12.384 10.3947L12.0819 8.19173Z" fill="#E3E1DF" />
		<path d="M12.0823 3.65063L10.7516 3.67668C10.7516 3.67668 10.7126 4.50736 10.6969 4.78078C10.6813 5.0516 10.6631 5.74948 10.6631 5.74948H12.2333L12.0823 3.65063Z" fill="#E3E1DF" />
		<path d="M21.7872 27.1651C21.6727 27.0271 20.4488 25.5376 19.3915 24.0117C18.3343 22.4857 17.3031 20.8842 16.7172 19.7567C15.5428 17.499 15.1548 16.1319 14.5272 13.7127C14.2043 12.468 13.8345 11.0775 13.5481 7.20786C13.2825 3.6143 13.4439 2.98152 13.2981 2.9685C13.1783 2.95548 12.0039 2.92944 12.0039 2.92944C12.0039 2.92944 12.0482 7.49951 12.0846 11.5019C12.1211 15.421 12.2956 28.5687 12.2956 28.5687C12.2956 28.5687 12.4857 28.5765 12.7382 28.5765C13.1966 28.5739 13.8606 28.5531 13.9413 28.4776C14.0819 28.3422 14.0923 25.7616 14.1626 24.7773C14.2408 23.6784 15.4256 22.9362 16.6209 24.0481C17.9567 25.2928 19.2822 27.6755 19.4436 27.7927C19.6467 27.9385 21.7221 27.8162 21.9773 27.8162C22.2247 27.8083 22.0164 27.4412 21.7872 27.1651ZM13.4075 15.0173C13.7148 14.9314 14.0559 15.0668 14.1132 15.3064C14.1679 15.546 14.1262 15.8585 13.6731 15.9105C13.3059 15.9522 13.1106 15.848 13.0637 15.5486C13.0195 15.2647 13.1861 15.0798 13.4075 15.0173ZM13.207 16.7751C13.2825 16.5928 14.1861 16.4339 14.3033 16.6032C14.4204 16.7725 14.2017 17.7464 13.9413 17.7594C13.6809 17.7698 13.1497 16.9105 13.207 16.7751ZM16.324 22.0717C16.0896 22.306 15.8475 22.1836 14.9777 22.3503C14.108 22.517 13.8762 22.7565 13.5585 22.7044C13.2408 22.655 13.2773 21.9493 13.3606 20.7124C13.4439 19.4754 13.7226 18.4573 14.1288 18.3844C14.6782 18.288 15.2668 19.5093 15.6001 20.1265C15.9334 20.7436 16.5584 21.8373 16.324 22.0717Z" fill="#5264FF" />
		<path d="M15.2613 18.7385L13.2197 22.9388L14.1077 22.9544L15.7951 19.3088L15.2613 18.7385Z" fill="#5264FF" />
		<path d="M13.3711 18.8896L16.8683 22.3009L15.9803 22.4363L13.0352 19.6578L13.3711 18.8896Z" fill="#5264FF" />
		<path d="M12.0947 12.6423C12.0947 12.6423 15.131 12.6345 15.4279 12.6345C15.7326 12.6345 15.8654 12.8142 15.7664 13.0407C15.6675 13.2647 14.8862 14.3896 14.7691 14.5875C14.7352 14.6448 12.1156 14.6526 12.1156 14.6526L12.0947 12.6423Z" fill="#AFB1B0" />
		<path d="M12.0508 8.18408L13.6288 8.19971C13.6288 8.19971 13.7069 8.97571 13.733 9.23351C13.7825 9.70744 13.8658 10.3793 13.8658 10.3793L12.0638 10.3897L12.0508 8.18408Z" fill="#C9C7CA" />
		<path d="M12.0098 3.65332L13.3769 3.65592L13.4524 5.72352L12.0176 5.75477L12.0098 3.65332Z" fill="#C9C7CA" />
	</g>
	<defs>
		<clipPath id="clip0_573_2765">
			<rect width="24" height="24" fill="white" transform="translate(0 0.921875)" />
		</clipPath>
	</defs>
</svg>